<svg width="20" height="21" xmlns="http://www.w3.org/2000/svg" xmlns:xlink="http://www.w3.org/1999/xlink" xml:space="preserve" overflow="hidden"><g transform="translate(-28 -478)"><path d="M14.28 19.128C13.8 18.928 13.528 18.376 13.624 17.784 13.68 17.448 13.816 17.28 14.32 16.96 14.648 16.752 14.736 16.632 14.96 16.096 15.264 15.376 16.016 14.28 16.36 14.072 16.648 13.888 16.968 13.88 17.28 14.04 17.576 14.192 17.632 14.416 17.56 15.08 17.512 15.568 17.52 15.632 17.768 16.056 18.144 16.728 18.176 16.92 18.032 17.448 17.856 18.08 17.616 18.288 16.96 18.392 16.672 18.44 16.032 18.64 15.544 18.84 14.6 19.216 14.536 19.232 14.28 19.128ZM15.408 18.312C15.84 18.136 16.4 17.952 16.64 17.912 17.328 17.784 17.344 17.776 17.48 17.352L17.616 16.96 17.28 16.336C16.92 15.68 16.936 15.768 17.064 14.68 17.072 14.56 17.024 14.512 16.872 14.496 16.688 14.472 16.584 14.56 16.2 15.056 15.944 15.376 15.688 15.768 15.624 15.92 15.168 17.016 15.104 17.12 14.688 17.368 14.2 17.664 14.16 17.72 14.16 18.064 14.16 18.304 14.384 18.64 14.544 18.64 14.584 18.64 14.968 18.496 15.408 18.312Z" fill="#C96984" transform="matrix(1 0 0 -1.05 28 499)"/><path d="M10.336 18.568C9.72 18.52 9.648 18.504 9.44 18.272 9.32 18.136 9.208 17.976 9.192 17.928 9.168 17.856 9.096 17.856 8.888 17.928 8.496 18.064 6.976 17.976 6.592 17.792 6.408 17.704 6.216 17.512 6.088 17.304 5.944 17.072 5.84 16.976 5.76 17.008 5.696 17.032 5.416 17.072 5.144 17.096 4.64 17.144 4.632 17.136 3.88 16.68 2.944 16.12 2.72 15.872 2.72 15.416 2.72 15.112 2.688 15.056 2.344 14.8 1.904 14.472 1.792 14.184 1.96 13.784 2.04 13.6 2.168 13.472 2.36 13.392 2.624 13.288 2.696 13.296 3.384 13.488 4.024 13.672 4.176 13.752 4.536 14.096 4.912 14.44 4.976 14.48 5.128 14.392 5.288 14.312 5.568 14.328 5.968 14.44 6.104 14.488 6.16 14.448 6.224 14.24 6.296 14.048 6.28 13.832 6.152 13.216 6.064 12.792 6.016 12.368 6.032 12.28 6.056 12.192 6.2 11.976 6.344 11.8 6.72 11.36 6.84 11.088 6.96 10.44 7.072 9.824 7.272 9.52 7.576 9.52 7.696 9.52 7.976 9.32 8.376 8.952 9.072 8.304 9.28 8.192 9.984 8.112 10.256 8.088 10.48 8.024 10.48 7.984 10.48 7.936 10.4 7.8 10.312 7.664 10.072 7.336 10.024 6.816 10.2 6.472 10.528 5.848 10.984 5.264 11.216 5.184 11.392 5.12 11.432 5.064 11.392 4.968 11.288 4.728 11.264 4.224 11.352 4.136 11.48 4.008 11.464 3.864 11.272 3.608 11.136 3.424 11.112 3.312 11.152 3.064 11.184 2.896 11.232 2.456 11.272 2.08 11.336 1.272 11.44 1.064 11.816 0.904 12.224 0.736 12.456 0.864 12.84 1.464 13.152 1.944 13.16 1.976 13.144 2.576L13.12 3.192 13.608 3.528C14.032 3.816 14.128 3.928 14.336 4.4 14.544 4.864 14.648 4.992 15.088 5.32 15.624 5.704 15.84 6.008 15.84 6.344 15.84 6.504 15.92 6.576 16.24 6.712 16.84 6.976 16.968 7.392 16.608 7.928 16.376 8.264 16.04 8.44 15.48 8.52 15.136 8.568 15.032 8.624 14.76 8.936L14.44 9.296 13 9.528C11.672 9.752 11.2 9.776 10.872 9.648 10.784 9.608 10.68 9.688 10.528 9.912 10.392 10.104 10.184 10.28 9.992 10.352 9.824 10.424 9.68 10.504 9.68 10.536 9.68 10.576 9.768 10.704 9.872 10.84L10.056 11.072 10.488 10.776C10.984 10.432 11.312 10.4 11.632 10.648 11.816 10.792 11.84 10.864 11.84 11.312 11.84 11.832 11.872 11.912 12.416 12.64 12.568 12.848 12.64 12.88 12.976 12.88 13.48 12.88 14.216 13.168 14.544 13.488 14.864 13.808 14.872 14.072 14.6 14.88 14.36 15.584 14.24 15.728 13.456 16.208 12.912 16.552 12.84 16.576 12.456 16.536 11.944 16.488 11.76 16.288 11.76 15.792 11.76 15.368 11.688 15.352 11.176 15.68 10.608 16.032 10.648 16.2 11.432 16.8 11.784 17.064 12.128 17.36 12.192 17.456 12.376 17.72 12.352 18.112 12.136 18.368 11.968 18.56 11.88 18.592 11.472 18.608 11.216 18.616 10.696 18.6 10.336 18.568ZM11.744 17.88C11.76 17.752 11.616 17.6 11.12 17.256 10.768 17 10.424 16.688 10.36 16.56 10.064 15.992 10.32 15.464 11.064 15.12 11.672 14.824 11.76 14.824 12.072 15.088 12.28 15.264 12.32 15.352 12.32 15.648 12.32 15.992 12.328 16 12.584 16 12.752 15.992 13 15.88 13.32 15.656 13.856 15.28 14.152 14.8 14.224 14.2L14.264 13.848 13.8 13.64C13.48 13.504 13.2 13.44 12.88 13.44 12.328 13.44 12.24 13.376 11.728 12.616 11.392 12.12 11.36 12.024 11.36 11.592 11.36 10.976 11.248 10.928 10.68 11.312 10.104 11.712 9.824 11.688 9.464 11.216 8.976 10.568 9.016 10.128 9.576 9.92 9.792 9.84 10.008 9.672 10.176 9.456 10.48 9.056 10.696 8.984 11.12 9.12 11.384 9.208 11.592 9.2 12.576 9.048 14.136 8.808 14.256 8.768 14.424 8.48 14.608 8.176 14.72 8.12 15.36 7.992 15.872 7.896 16.24 7.656 16.24 7.416 16.24 7.36 16.064 7.224 15.84 7.128 15.448 6.952 15.416 6.912 15.32 6.424 15.28 6.24 15.152 6.072 14.896 5.864 14.192 5.312 14.008 5.096 13.872 4.696 13.768 4.392 13.664 4.248 13.376 4.048 12.52 3.456 12.536 3.48 12.592 2.816 12.64 2.248 12.624 2.192 12.392 1.792 12.256 1.552 12.12 1.36 12.088 1.36 11.912 1.36 11.84 1.6 11.84 2.2 11.84 2.632 11.8 2.904 11.728 3.008 11.624 3.144 11.632 3.184 11.808 3.416 12.024 3.704 12.056 4.048 11.88 4.296 11.776 4.44 11.776 4.496 11.888 4.768 12.048 5.184 11.936 5.488 11.576 5.64 11.264 5.768 10.64 6.656 10.64 6.968 10.64 7.072 10.728 7.296 10.84 7.456 10.952 7.616 11.04 7.848 11.04 7.96 11.04 8.424 10.824 8.56 9.848 8.68 9.44 8.736 9.36 8.784 8.8 9.32 8.456 9.648 8.072 9.936 7.904 9.992 7.584 10.096 7.568 10.12 7.448 10.824 7.352 11.368 7.272 11.52 6.864 12.016L6.552 12.392 6.72 13.24 6.888 14.08 6.688 14.52C6.464 15.008 6.232 15.128 5.808 14.976 5.664 14.92 5.384 14.904 5.144 14.936 4.736 14.984 4.72 14.976 4.28 14.584 3.912 14.256 3.728 14.152 3.216 14.016 2.712 13.872 2.584 13.864 2.496 13.952 2.352 14.096 2.448 14.28 2.768 14.448 3.112 14.632 3.28 14.928 3.28 15.344 3.28 15.656 3.288 15.672 4.016 16.12 4.792 16.6 4.904 16.632 5.536 16.488 6.024 16.376 6.28 16.488 6.488 16.896 6.688 17.288 6.808 17.344 7.656 17.44 8.24 17.504 8.448 17.496 8.784 17.4 9.288 17.248 9.552 17.336 9.736 17.712 9.888 18.032 9.992 18.064 11.04 18.048 11.664 18.04 11.72 18.024 11.744 17.88Z" fill="#C96984" transform="matrix(1 0 0 -1.05 28 499)"/></g></svg>