<svg width="21" height="21" xmlns="http://www.w3.org/2000/svg" xmlns:xlink="http://www.w3.org/1999/xlink" xml:space="preserve" overflow="hidden"><g transform="translate(-27 -558)"><path d="M14.4421 20.5211C14.1474 20.1895 13.9754 19.3298 14.0614 18.6667 14.0982 18.3596 14.0737 17.9544 14.0123 17.7579L13.8772 17.414 13.2263 17.7947C12.3789 18.286 12.3053 18.4088 12.5754 19.0105 12.993 19.9439 12.5877 20.3 10.9789 20.4351 9.76316 20.5456 9.45614 20.4351 8.7193 19.6368 8.19123 19.0719 8.12982 19.0351 7.81053 19.1456 7 19.4649 6.53333 19.2684 5.24386 18.0526 4.65439 17.5 4.40877 17.1807 4.34737 16.886 4.28596 16.5298 4.18772 16.4316 3.69649 16.2596 2.28421 15.7439 1.30175 15.3018 0.994737 15.0316 0.577193 14.6754 0.135088 13.693 0.0491228 12.9193-0.0122807 12.4281 0.0368421 12.2316 0.417544 11.5193 0.761404 10.893 0.859649 10.5491 0.859649 10.0825 0.859649 9.75088 0.921053 9.32105 0.994737 9.13684 1.09298 8.86667 1.06842 8.68246 0.908772 8.31404 0.589474 7.62632 0.822807 7.27018 1.75614 6.9386L2.46842 6.69298 3.41404 7.02456C3.92982 7.19649 4.67895 7.3807 5.05965 7.42982 5.51404 7.47895 6.12807 7.68772 6.77895 8.0193 7.55263 8.4 7.98246 8.53509 8.54737 8.57193 9.46842 8.63333 9.84912 8.4614 10.9053 7.47895 11.3228 7.07368 11.7404 6.75439 11.8018 6.75439 11.8754 6.75439 12.0474 6.6193 12.1825 6.44737 12.3421 6.25088 12.5386 6.14035 12.7719 6.14035 13.0667 6.14035 13.1404 6.06667 13.2632 5.71053 13.4228 5.23158 13.9877 4.70351 14.4667 4.59298 14.6509 4.54386 14.9456 4.34737 15.1298 4.16316 15.5351 3.72105 15.8667 3.70877 16.186 4.11404 16.3702 4.34737 16.5421 4.42105 16.9228 4.42105 17.2053 4.42105 17.5246 4.5193 17.6965 4.65439 17.8561 4.77719 18.2 4.94912 18.4579 5.03509 18.986 5.19474 19.2807 5.69825 19.2807 6.37368 19.2807 6.58246 19.3421 6.88947 19.4281 7.07368 19.5509 7.34386 19.5509 7.41754 19.3544 7.55263 18.9246 7.87193 18.5561 7.42982 18.4333 6.47193 18.3596 5.90702 18.3351 5.85789 17.893 5.71053 17.6351 5.62456 17.3281 5.46491 17.2175 5.36667 17.0825 5.24386 16.886 5.20702 16.6772 5.24386 16.4684 5.2807 16.2105 5.23158 16.014 5.09649 15.7561 4.93684 15.6702 4.92456 15.5105 5.04737 15.4123 5.13333 15.0684 5.29298 14.7614 5.40351 14.2702 5.56316 14.1596 5.6614 14 6.09123 13.7421 6.79123 13.5333 7 13.1281 7 12.9316 7 12.7719 7.0614 12.7719 7.13509 12.7719 7.19649 12.5754 7.34386 12.3298 7.44211 12.0842 7.54035 11.6667 7.87193 11.4088 8.15439 11.1386 8.44912 10.6351 8.8421 10.2789 9.0386 9.72632 9.34561 9.51754 9.39474 8.6579 9.39474 7.73684 9.38246 7.60175 9.34561 6.52105 8.80526 5.71053 8.4 5.20702 8.22807 4.86316 8.22807 4.5807 8.22807 3.97895 8.0807 3.5 7.92105 2.54211 7.57719 2.37018 7.56491 1.91579 7.73684 1.59649 7.84737 1.59649 7.85965 1.80526 8.27719 1.96491 8.63333 1.97719 8.79298 1.86667 9.17368 1.79298 9.43158 1.70702 9.95965 1.67018 10.3526 1.63333 10.8439 1.49825 11.2737 1.22807 11.7526 0.896491 12.3421 0.847368 12.5263 0.908772 12.9807 1.00702 13.7053 1.37544 14.393 1.80526 14.6263 1.98947 14.7368 2.66491 15.007 3.29123 15.2281 4.65439 15.707 4.99825 15.9526 5.10877 16.5298 5.17018 16.8491 5.37895 17.1193 6.05439 17.6965 6.88947 18.4211 6.9386 18.4456 7.41754 18.3596 8.35088 18.2 8.47368 18.2491 9.19825 18.9614 9.88596 19.6368 9.89825 19.6491 10.6228 19.6491 11.0281 19.6491 11.4825 19.6123 11.6298 19.5754 11.8877 19.5018 11.9 19.4772 11.7281 19.1456 11.4333 18.5807 11.4947 18.1509 11.9491 17.7211 13.0789 16.6526 14.3316 16.3947 14.6877 17.1561 14.7368 17.2789 14.8228 17.9298 14.8596 18.6053L14.9211 19.8333 15.1912 19.2561C15.3263 18.9491 15.5842 18.593 15.7561 18.4825 15.9772 18.3474 16.1123 18.0895 16.2105 17.6474 16.4316 16.7386 16.6281 16.407 17.2667 15.8789 17.5737 15.6211 17.9298 15.1912 18.0526 14.9211 18.3228 14.307 19.4526 13.0421 19.8211 12.9439 20.0421 12.8947 20.1035 12.7965 20.0912 12.4281 20.0912 12.1825 20.1035 11.4702 20.1158 10.8439 20.1404 9.8614 20.1772 9.68947 20.3737 9.57895 20.5579 9.49298 20.6684 9.50526 20.8158 9.65263 20.9877 9.83684 21.0123 10.0947 20.9509 11.5684 20.914 12.5509 20.8281 13.3614 20.7544 13.4474 20.6807 13.5456 20.4596 13.6561 20.2632 13.693 19.8825 13.7789 18.9982 14.7491 18.7281 15.3754 18.6421 15.5965 18.2614 16.0754 17.8807 16.4193 17.3895 16.8982 17.1684 17.2053 17.0702 17.586 16.8491 18.4579 16.6895 18.7895 16.3333 19.0719 16.1614 19.2193 15.9158 19.6 15.793 19.9316 15.486 20.7544 14.8842 21.0123 14.4421 20.5211Z" fill="#C96984" transform="matrix(1 0 0 -1 27 579)"/><path d="M19.5386 8.85439C19.3789 8.55965 19.6491 8.15439 19.9439 8.26491 20.2263 8.37544 20.3246 8.68246 20.1404 8.90351 19.9316 9.14912 19.686 9.13684 19.5386 8.85439Z" fill="#C96984" transform="matrix(1 0 0 -1 27 579)"/><path d="M15.6333 3.13158C15.2158 2.83684 15.2649 2.27193 15.793 1.4 16.3211 0.515789 16.6404 0.257895 17.1684 0.245614 18.0158 0.245614 18.4211 0.810526 18.4211 2.00175 18.4211 2.83684 18.2368 3.00877 17.2544 3.1193 16.8491 3.15614 16.3825 3.21754 16.2105 3.25439 16.0263 3.30351 15.793 3.25439 15.6333 3.13158ZM17.1439 2.24737C17.6596 2.18596 17.6596 2.17368 17.5982 1.73158 17.5246 1.27719 17.3649 0.982456 17.1807 0.982456 17.0333 0.982456 16.2228 2.11228 16.2105 2.32105 16.2105 2.4193 16.2842 2.45614 16.4193 2.40702 16.5298 2.35789 16.8614 2.28421 17.1439 2.24737Z" fill="#C96984" transform="matrix(1 0 0 -1 27 579)"/></g></svg>