<svg width="100" height="90" xmlns="http://www.w3.org/2000/svg" xmlns:xlink="http://www.w3.org/1999/xlink" xml:space="preserve" overflow="hidden"><defs><filter id="fx0" x="-10%" y="-10%" width="120%" height="120%" filterUnits="userSpaceOnUse" primitiveUnits="userSpaceOnUse"><feComponentTransfer color-interpolation-filters="sRGB"><feFuncR type="discrete" tableValues="0 0"/><feFuncG type="discrete" tableValues="0 0"/><feFuncB type="discrete" tableValues="0 0"/><feFuncA type="linear" slope="0.188235" intercept="0"/></feComponentTransfer><feGaussianBlur stdDeviation="4.58333 4.58333"/></filter><filter id="fx1" x="-10%" y="-10%" width="120%" height="120%" filterUnits="userSpaceOnUse" primitiveUnits="userSpaceOnUse"><feComponentTransfer color-interpolation-filters="sRGB"><feFuncR type="discrete" tableValues="0 0"/><feFuncG type="discrete" tableValues="0 0"/><feFuncB type="discrete" tableValues="0 0"/><feFuncA type="linear" slope="0.188235" intercept="0"/></feComponentTransfer><feGaussianBlur stdDeviation="4.58333 4.58333"/></filter><filter id="fx2" x="-10%" y="-10%" width="120%" height="120%" filterUnits="userSpaceOnUse" primitiveUnits="userSpaceOnUse"><feComponentTransfer color-interpolation-filters="sRGB"><feFuncR type="discrete" tableValues="0 0"/><feFuncG type="discrete" tableValues="0 0"/><feFuncB type="discrete" tableValues="0 0"/><feFuncA type="linear" slope="0.188235" intercept="0"/></feComponentTransfer><feGaussianBlur stdDeviation="4.58333 4.58333"/></filter><filter id="fx3" x="-10%" y="-10%" width="120%" height="120%" filterUnits="userSpaceOnUse" primitiveUnits="userSpaceOnUse"><feComponentTransfer color-interpolation-filters="sRGB"><feFuncR type="discrete" tableValues="0 0"/><feFuncG type="discrete" tableValues="0 0"/><feFuncB type="discrete" tableValues="0 0"/><feFuncA type="linear" slope="0.188235" intercept="0"/></feComponentTransfer><feGaussianBlur stdDeviation="4.58333 4.58333"/></filter><clipPath id="clip4"><rect x="93" y="955" width="100" height="90"/></clipPath></defs><g clip-path="url(#clip4)" transform="translate(-93 -955)"><g filter="url(#fx0)" transform="translate(92 954)"><g><path d="M58.2053 57.3669 55.7292 51.6662C55.7769 51.6184 55.8244 51.5706 55.872 51.5108 56.3958 50.9491 56.9434 50.3755 57.3839 49.6345 57.3839 49.6345 57.3839 49.6345 57.3839 49.6345 57.8363 48.8696 58.122 48.0928 58.384 47.3397L64.4315 46.6228C65.3007 46.5152 66.2767 45.6786 66.2767 44.6389L66.2767 35.4364C66.2767 34.3966 65.3244 33.56 64.4315 33.4525L58.384 32.7354C57.8244 31.1937 57.1696 29.5443 56.0863 28.0504L58.2053 23.0907C58.7053 21.9194 58.515 20.8557 57.7292 20.3896L49.7412 15.5852C48.8006 15.0236 47.5031 15.6212 47.003 16.2904L43.4435 20.9276C41.7292 20.6884 39.9198 20.6884 38.1221 20.9276L34.5387 15.8961C34.2769 15.5495 33.5269 14.8204 32.2173 15.5613L24.2175 19.9833C23.3483 20.4972 22.9793 21.4055 23.3007 22.2421L25.4554 28.0026C24.4197 29.3531 23.7531 30.7394 23.1459 32.3409L17.4912 33.0461C16.896 33.1178 15.2531 33.7154 15.2412 35.0299L15.2412 44.6268C15.2294 45.6667 16.2055 46.5152 17.0983 46.6228L23.4316 47.3279C23.8484 48.9891 24.4912 50.3635 25.4316 51.6302L23.2888 57.0562C22.7055 58.3708 23.3721 59.0162 23.7531 59.2313L31.3959 64.4778C31.8245 64.7288 32.1936 64.8245 32.503 64.8245 33.146 64.8245 33.5507 64.43 33.6935 64.227L38.0506 59.1356C39.753 59.3748 41.6222 59.3748 43.4554 59.1356L47.3959 64.1791C48.0744 65.0875 49.4078 64.9082 50.2054 64.454L57.3245 59.6854C58.1934 59.1715 58.5625 58.2513 58.2053 57.3669ZM49.0149 62.3744 44.896 57.104C44.6697 56.8172 44.3244 56.6499 43.9554 56.6499 43.8959 56.6499 43.8244 56.6499 43.7649 56.6617 41.7649 56.9964 39.5864 56.9964 37.7887 56.6617 37.3721 56.5901 36.9436 56.7335 36.6697 57.0562L32.2888 62.1953 25.6221 57.6179 27.9078 51.8694C28.0745 51.463 27.9912 50.9969 27.7174 50.6623 26.5984 49.3236 25.9674 47.9254 25.5745 45.9893 25.4794 45.4754 25.0508 45.093 24.5388 45.0331L17.6221 44.2564 17.6221 35.4482C17.6818 35.4244 17.7413 35.4005 17.7769 35.3885L24.1579 34.5878C24.6102 34.5281 24.9793 34.2293 25.134 33.7991 25.8126 31.8868 26.4793 30.4049 27.7054 28.9707 27.9912 28.6361 28.0745 28.182 27.9197 27.7755L25.7055 21.8597 33.0031 17.8321 36.5983 22.8875C36.8602 23.258 37.3246 23.4493 37.765 23.3656 39.7887 23.019 41.8484 23.019 43.7292 23.3656 44.1698 23.4493 44.6221 23.2699 44.884 22.9233L48.8006 17.7963 56.0031 22.1345 53.6102 27.7398C53.4315 28.158 53.503 28.6361 53.7887 28.9707 55.0506 30.4886 55.753 32.4725 56.3721 34.2173 56.5268 34.6476 56.9077 34.9464 57.3482 35.006L63.8721 35.7709 63.8721 44.2684 57.3482 45.0452C56.9077 45.093 56.5268 45.3918 56.3721 45.8101L56.1577 46.4076C55.8958 47.1246 55.6577 47.8058 55.3006 48.4154 55.003 48.9294 54.5745 49.3835 54.1101 49.8735 53.872 50.1245 53.6221 50.3873 53.3959 50.6623 53.0983 51.0088 53.0269 51.4988 53.2054 51.9172L55.7769 57.8211 49.0149 62.3744Z" fill="#C96984" fill-rule="evenodd"/></g></g><path d="M146.964 1008.13 144.488 1002.43C144.536 1002.38 144.583 1002.33 144.631 1002.27 145.155 1001.71 145.703 1001.13 146.143 1000.39 146.143 1000.39 146.143 1000.39 146.143 1000.39 146.595 999.629 146.881 998.852 147.143 998.099L153.191 997.382C154.06 997.274 155.036 996.438 155.036 995.398L155.036 986.195C155.036 985.156 154.083 984.319 153.191 984.212L147.143 983.495C146.583 981.953 145.929 980.303 144.845 978.81L146.964 973.85C147.464 972.679 147.274 971.615 146.488 971.149L138.5 966.344C137.56 965.783 136.262 966.38 135.762 967.049L132.203 971.687C130.488 971.448 128.679 971.448 126.881 971.687L123.298 966.655C123.036 966.309 122.286 965.579 120.976 966.32L112.977 970.742C112.107 971.256 111.738 972.165 112.06 973.001L114.215 978.762C113.179 980.112 112.512 981.499 111.905 983.1L106.25 983.805C105.655 983.877 104.012 984.474 104 985.789L104 995.386C103.988 996.426 104.965 997.274 105.857 997.382L112.191 998.087C112.607 999.748 113.25 1001.12 114.191 1002.39L112.048 1007.82C111.465 1009.13 112.131 1009.78 112.512 1009.99L120.155 1015.24C120.584 1015.49 120.953 1015.58 121.262 1015.58 121.905 1015.58 122.31 1015.19 122.453 1014.99L126.81 1009.89C128.512 1010.13 130.381 1010.13 132.214 1009.89L136.155 1014.94C136.833 1015.85 138.167 1015.67 138.964 1015.21L146.084 1010.44C146.953 1009.93 147.322 1009.01 146.964 1008.13ZM137.774 1013.13 133.655 1007.86C133.429 1007.58 133.083 1007.41 132.714 1007.41 132.655 1007.41 132.584 1007.41 132.524 1007.42 130.524 1007.76 128.345 1007.76 126.548 1007.42 126.131 1007.35 125.703 1007.49 125.429 1007.82L121.048 1012.95 114.381 1008.38 116.667 1002.63C116.834 1002.22 116.75 1001.76 116.477 1001.42 115.357 1000.08 114.726 998.685 114.334 996.748 114.238 996.235 113.81 995.852 113.298 995.792L106.381 995.016 106.381 986.207C106.441 986.184 106.5 986.16 106.536 986.148L112.917 985.347C113.369 985.287 113.738 984.988 113.893 984.558 114.572 982.646 115.238 981.164 116.465 979.73 116.75 979.395 116.834 978.941 116.679 978.535L114.465 972.619 121.762 968.591 125.357 973.647C125.619 974.017 126.084 974.208 126.524 974.125 128.548 973.778 130.607 973.778 132.488 974.125 132.929 974.208 133.381 974.029 133.643 973.682L137.56 968.555 144.762 972.894 142.369 978.499C142.191 978.917 142.262 979.395 142.548 979.73 143.81 981.248 144.512 983.232 145.131 984.976 145.286 985.407 145.667 985.705 146.107 985.765L152.631 986.53 152.631 995.027 146.107 995.804C145.667 995.852 145.286 996.151 145.131 996.569L144.917 997.167C144.655 997.884 144.417 998.565 144.06 999.175 143.762 999.688 143.334 1000.14 142.869 1000.63 142.631 1000.88 142.381 1001.15 142.155 1001.42 141.857 1001.77 141.786 1002.26 141.964 1002.68L144.536 1008.58 137.774 1013.13Z" fill="#C96984" fill-rule="evenodd"/><g filter="url(#fx1)" transform="translate(107 969)"><g><path d="M25.7033 15.241C19.9283 15.241 15.2409 19.6941 15.2409 25.1803 15.2409 30.6665 19.9283 35.1196 25.7033 35.1196 31.4783 35.1196 36.1658 30.6665 36.1658 25.1803 36.1658 19.6941 31.4783 15.241 25.7033 15.241ZM25.7033 32.7446C21.3158 32.7446 17.7409 29.3484 17.7409 25.1803 17.7409 21.0122 21.3158 17.616 25.7033 17.616 30.0908 17.616 33.6658 21.0122 33.6658 25.1803 33.6658 29.3484 30.0908 32.7446 25.7033 32.7446Z" fill="#C96984" fill-rule="evenodd"/></g></g><path d="M129.462 981C123.687 981 119 985.453 119 990.939 119 996.426 123.687 1000.88 129.462 1000.88 135.237 1000.88 139.925 996.426 139.925 990.939 139.925 985.453 135.237 981 129.462 981ZM129.462 998.504C125.075 998.504 121.5 995.107 121.5 990.939 121.5 986.771 125.075 983.375 129.462 983.375 133.85 983.375 137.425 986.771 137.425 990.939 137.425 995.107 133.85 998.504 129.462 998.504Z" fill="#C96984" fill-rule="evenodd"/><g filter="url(#fx2)" transform="translate(134 985)"><g><path d="M44.7423 27.8941 42.9418 22.9021C42.5793 21.9181 41.7577 21.7261 41.1414 21.8701L38.0602 22.6981C37.4802 22.1101 36.8035 21.5701 36.0906 21.1021L36.3081 17.91C36.3323 17.322 35.994 16.566 35.0152 16.398L29.9644 15.258C29.7711 15.222 28.7319 15.126 28.3332 16.41L27.3182 19.3861C26.5328 19.5421 25.8561 19.8181 25.3123 20.2021L22.6178 18.4621C22.0015 18.066 20.9503 18.09 20.3824 18.7741L16.9145 22.9741C16.3465 23.6461 16.5157 24.6661 17.0474 25.2181L19.3432 27.5581C18.9807 28.3741 18.7511 29.1541 18.6665 29.8982L16.1532 31.1942C14.9449 31.8062 15.2591 32.8142 15.3316 32.9942L17.132 37.9862C17.5065 38.9702 18.3161 39.1622 18.9324 39.0182L22.0257 38.1902C22.6178 38.7782 23.3186 39.3422 24.0557 39.8222L24.1403 43.2663C24.1161 43.8543 24.4544 44.6103 25.5782 44.8023L30.4236 45.2703C30.4598 45.2823 30.5323 45.2823 30.629 45.2823 31.0156 45.2823 31.7286 45.1383 32.0427 44.1063 32.0669 44.0463 32.079 43.9983 32.0911 43.9383L32.5261 41.3583C33.4686 41.2862 34.544 40.9862 35.3415 40.5542L37.7581 42.0663C38.3744 42.4623 39.4256 42.4263 39.9814 41.7543L43.1714 37.8902C43.7273 37.2182 43.5581 36.1982 43.0385 35.6462L40.8273 33.4022C41.2502 32.5982 41.4073 31.7702 41.4435 30.9662L43.9327 29.6821C45.1168 29.0821 44.8027 28.0621 44.7423 27.8941ZM30.6531 17.034C30.6411 17.082 30.6169 17.13 30.5806 17.178L29.4569 16.794 30.6531 17.034ZM39.6673 29.1781C39.2685 29.3821 39.0148 29.8022 39.0148 30.2582 39.0269 31.3502 38.9181 32.0822 38.326 32.8022 37.9394 33.2702 37.9635 33.9662 38.3985 34.3982L40.8514 36.8942 38.5194 39.7262 35.9215 38.0942C35.4019 37.7702 34.7373 37.8662 34.3506 38.3342 34.0123 38.6582 32.3811 39.1022 31.7527 38.9582 31.4265 38.8862 31.0881 38.9462 30.8102 39.1262 30.5323 39.3062 30.3511 39.5942 30.2906 39.9182L29.7952 42.7983 26.4965 42.4743 26.424 39.1022C26.4119 38.6822 26.1823 38.2982 25.8198 38.0942 24.8773 37.5542 23.9348 36.7982 23.3065 36.0542 23.0044 35.6942 22.5211 35.5502 22.074 35.6702L19.1257 36.4622 17.869 32.9942 20.3703 31.6982C20.769 31.4942 21.0228 31.0742 21.0228 30.6182 21.0107 29.8382 21.2886 28.9141 21.8444 27.8701 22.0861 27.4141 22.0136 26.8381 21.639 26.4661L19.1861 23.9701 21.8082 20.7901 24.7565 22.6861C25.2761 23.0221 25.9648 22.9141 26.3515 22.4341 26.714 21.9901 27.3907 21.7141 28.3332 21.6181 28.8044 21.5701 29.2032 21.2581 29.3602 20.8141L30.3994 17.778 33.8431 18.5461 33.6256 21.6661C33.5894 22.1221 33.8311 22.5661 34.2298 22.7941 35.1844 23.3341 36.0665 24.0541 36.731 24.8221 37.0331 25.1821 37.5164 25.3261 37.9635 25.2061L40.9119 24.4141 42.1685 27.8821 39.6673 29.1781ZM42.7606 27.5941C42.7968 27.5701 42.821 27.5461 42.8573 27.5221L43.4493 28.5661 42.7606 27.5941Z" fill="#C96984" fill-rule="evenodd"/></g></g><path d="M175.501 1009.65 173.701 1004.66C173.338 1003.68 172.517 1003.49 171.9 1003.63L168.819 1004.46C168.239 1003.87 167.563 1003.33 166.85 1002.86L167.067 999.669C167.091 999.081 166.753 998.325 165.774 998.157L160.723 997.017C160.53 996.981 159.491 996.885 159.092 998.169L158.077 1001.15C157.292 1001.3 156.615 1001.58 156.071 1001.96L153.377 1000.22C152.761 999.825 151.709 999.849 151.141 1000.53L147.674 1004.73C147.106 1005.41 147.275 1006.43 147.806 1006.98L150.102 1009.32C149.74 1010.13 149.51 1010.91 149.426 1011.66L146.912 1012.95C145.704 1013.57 146.018 1014.57 146.091 1014.75L147.891 1019.75C148.266 1020.73 149.075 1020.92 149.691 1020.78L152.785 1019.95C153.377 1020.54 154.078 1021.1 154.815 1021.58L154.899 1025.03C154.875 1025.61 155.213 1026.37 156.337 1026.56L161.183 1027.03C161.219 1027.04 161.291 1027.04 161.388 1027.04 161.775 1027.04 162.488 1026.9 162.802 1025.87 162.826 1025.81 162.838 1025.76 162.85 1025.7L163.285 1023.12C164.228 1023.05 165.303 1022.75 166.101 1022.31L168.517 1023.83C169.133 1024.22 170.185 1024.19 170.741 1023.51L173.93 1019.65C174.486 1018.98 174.317 1017.96 173.798 1017.41L171.586 1015.16C172.009 1014.36 172.166 1013.53 172.203 1012.73L174.692 1011.44C175.876 1010.84 175.562 1009.82 175.501 1009.65ZM161.412 998.793C161.4 998.841 161.376 998.889 161.34 998.937L160.216 998.553 161.412 998.793ZM170.426 1010.94C170.028 1011.14 169.774 1011.56 169.774 1012.02 169.786 1013.11 169.677 1013.84 169.085 1014.56 168.698 1015.03 168.723 1015.73 169.158 1016.16L171.611 1018.65 169.278 1021.49 166.681 1019.85C166.161 1019.53 165.496 1019.63 165.11 1020.09 164.771 1020.42 163.14 1020.86 162.512 1020.72 162.186 1020.65 161.847 1020.71 161.569 1020.89 161.291 1021.07 161.11 1021.35 161.05 1021.68L160.554 1024.56 157.256 1024.23 157.183 1020.86C157.171 1020.44 156.941 1020.06 156.579 1019.85 155.636 1019.31 154.694 1018.56 154.066 1017.81 153.764 1017.45 153.28 1017.31 152.833 1017.43L149.885 1018.22 148.628 1014.75 151.129 1013.46C151.528 1013.25 151.782 1012.83 151.782 1012.38 151.77 1011.6 152.048 1010.67 152.604 1009.63 152.845 1009.17 152.773 1008.6 152.398 1008.23L149.945 1005.73 152.567 1002.55 155.516 1004.45C156.035 1004.78 156.724 1004.67 157.111 1004.19 157.473 1003.75 158.15 1003.47 159.092 1003.38 159.563 1003.33 159.962 1003.02 160.119 1002.57L161.158 999.537 164.602 1000.31 164.385 1003.43C164.348 1003.88 164.59 1004.33 164.989 1004.55 165.943 1005.09 166.826 1005.81 167.49 1006.58 167.792 1006.94 168.276 1007.09 168.723 1006.97L171.671 1006.17 172.928 1009.64 170.426 1010.94ZM173.52 1009.35C173.556 1009.33 173.58 1009.31 173.616 1009.28L174.208 1010.33 173.52 1009.35Z" fill="#C96984" fill-rule="evenodd"/><g filter="url(#fx3)" transform="translate(145 996)"><g><path d="M19.241 15.2407C17.0353 15.2407 15.241 17.0491 15.241 19.2775 15.241 21.5059 17.0353 23.3143 19.241 23.3143 21.4467 23.3143 23.2409 21.5059 23.2409 19.2775 23.2409 17.0491 21.4467 15.2407 19.241 15.2407ZM19.241 20.9809C18.2925 20.9809 17.5267 20.2226 17.5267 19.2775 17.5267 18.3325 18.2925 17.5741 19.241 17.5741 20.1895 17.5741 20.9552 18.3325 20.9552 19.2775 20.9552 20.2226 20.1895 20.9809 19.241 20.9809Z" fill="#C96984" fill-rule="evenodd"/></g></g><path d="M161 1008C158.794 1008 157 1009.81 157 1012.04 157 1014.27 158.794 1016.07 161 1016.07 163.206 1016.07 165 1014.27 165 1012.04 165 1009.81 163.206 1008 161 1008ZM161 1013.74C160.052 1013.74 159.286 1012.98 159.286 1012.04 159.286 1011.09 160.052 1010.33 161 1010.33 161.949 1010.33 162.714 1011.09 162.714 1012.04 162.714 1012.98 161.949 1013.74 161 1013.74Z" fill="#C96984" fill-rule="evenodd"/></g></svg>