<svg width="87" height="88" xmlns="http://www.w3.org/2000/svg" xmlns:xlink="http://www.w3.org/1999/xlink" xml:space="preserve" overflow="hidden"><defs><filter id="fx0" x="-10%" y="-10%" width="120%" height="120%" filterUnits="userSpaceOnUse" primitiveUnits="userSpaceOnUse"><feComponentTransfer color-interpolation-filters="sRGB"><feFuncR type="discrete" tableValues="0 0"/><feFuncG type="discrete" tableValues="0 0"/><feFuncB type="discrete" tableValues="0 0"/><feFuncA type="linear" slope="0.188235" intercept="0"/></feComponentTransfer><feGaussianBlur stdDeviation="4.58333 4.58333"/></filter><filter id="fx1" x="-10%" y="-10%" width="120%" height="120%" filterUnits="userSpaceOnUse" primitiveUnits="userSpaceOnUse"><feComponentTransfer color-interpolation-filters="sRGB"><feFuncR type="discrete" tableValues="0 0"/><feFuncG type="discrete" tableValues="0 0"/><feFuncB type="discrete" tableValues="0 0"/><feFuncA type="linear" slope="0.188235" intercept="0"/></feComponentTransfer><feGaussianBlur stdDeviation="4.58333 4.58333"/></filter><clipPath id="clip2"><rect x="101" y="1130" width="87" height="88"/></clipPath></defs><g clip-path="url(#clip2)" transform="translate(-101 -1130)"><g filter="url(#fx0)" transform="translate(100 1129)"><g><path d="M73.5082 63.6457 60.9907 51.3737C60.6848 51.0733 60.2313 50.9875 59.8411 51.1591 58.1644 51.8993 56.1608 50.966 53.3557 48.1126L53.1659 47.9195C53.0183 47.7693 52.8917 47.6298 52.7441 47.4904L54.9059 44.9373C59.2718 46.5893 64.2386 47.4582 68.6466 42.9742 72.3692 39.1874 74.3517 33.148 73.698 27.5805 73.6453 27.1729 73.3816 26.8296 72.9914 26.6901 72.6117 26.5507 72.19 26.658 71.9052 26.9476L62.3616 36.6558C60.2946 35.9907 58.1961 34.7142 56.7513 33.2231 55.412 31.8929 54.4946 30.2302 53.8619 28.0203L63.4055 18.3121C63.6903 18.0225 63.7852 17.5934 63.6586 17.2072 63.5321 16.821 63.1946 16.5421 62.7939 16.4885 57.1732 15.7805 50.8987 17.8509 47.1866 21.6269 43.0844 25.7998 44.0018 30.2194 45.7419 35.1218L44.8244 35.9478C44.4237 35.7333 43.928 35.7762 43.5907 36.1194L41.6397 38.104 24.7459 20.9189 25.3047 20.3503C25.5263 20.125 25.6422 19.8139 25.6105 19.4921 25.5789 19.1703 25.4102 18.8807 25.1571 18.709L20.4011 15.4265C19.9793 15.1368 19.4204 15.1905 19.0619 15.5552L15.5502 19.1274C15.1916 19.4921 15.1389 20.0607 15.4236 20.4898L18.6505 25.3278C18.8298 25.596 19.1145 25.7676 19.4204 25.7891 19.452 25.7891 19.4836 25.7891 19.5153 25.7891 19.7895 25.7891 20.0637 25.6818 20.2641 25.478L20.8229 24.9094 37.7168 42.0945 35.9873 43.8538 19.1778 58.8828C15.6346 62.4871 15.6346 68.3442 19.1778 71.9486 20.8967 73.6972 23.1745 74.6519 25.6001 74.6519 28.0255 74.6519 30.3033 73.6864 32.0749 71.8842L47.3869 53.8088 47.5662 53.9911C50.3714 56.8446 51.2889 58.872 50.5612 60.5884 50.3924 60.9853 50.4768 61.4466 50.7721 61.7577L62.8361 74.491C63.0365 74.6948 63.3001 74.8128 63.5848 74.8235 63.5848 74.8235 63.5953 74.8235 63.5953 74.8235 63.8695 74.8235 64.1438 74.7055 64.3442 74.5124L73.5292 65.169C73.7295 64.9651 73.8351 64.6862 73.8351 64.3966 73.8351 64.1177 73.719 63.8495 73.5082 63.6457ZM17.6804 20.0178 19.9582 17.7007 22.932 19.7603 19.6945 23.0536 17.6804 20.0178ZM23.3644 22.5387 40.1634 39.6273 39.2248 40.582 22.4259 23.4934 23.3644 22.5387ZM48.6946 23.1609C51.4259 20.3825 55.9393 18.6232 60.2525 18.5159L51.9532 26.9583C51.6896 27.2265 51.584 27.6127 51.679 27.9774 52.396 30.8309 53.5771 33.0514 55.275 34.7463 57.0889 36.6236 59.8306 38.2113 62.4142 38.8978 62.7833 38.9944 63.1631 38.8871 63.4267 38.6189L71.7153 30.1872C71.5994 34.4031 69.9226 38.6404 67.1597 41.4616 63.5953 45.0875 59.7146 44.5618 54.9903 42.6738 54.5684 42.5022 54.0939 42.6309 53.8092 42.9742L51.2994 45.9349C49.9707 44.4116 49.3801 43.2424 49.9179 41.9873 50.0866 41.5796 50.0022 41.1184 49.6964 40.8073L48.5153 39.6058 50.076 38.2005C50.5189 37.8036 50.5612 37.1278 50.171 36.688 49.7809 36.2374 49.1165 36.2053 48.684 36.5914L47.0179 38.0825 46.3851 37.4389 47.6928 36.2696C48.0197 35.98 48.1358 35.508 47.988 35.0896 46.1848 30.1443 45.2568 26.658 48.6946 23.1609ZM30.5459 70.4468C27.8252 73.2144 23.4065 73.2144 20.6858 70.4468 17.9651 67.6792 17.9651 63.1844 20.6331 60.4704L36.4725 46.3104 37.1051 46.954 30.6302 52.7467C30.1873 53.1329 30.1452 53.8195 30.5354 54.2593 30.7462 54.4953 31.0309 54.624 31.3263 54.624 31.5687 54.624 31.8218 54.5382 32.0222 54.3558L38.6026 48.4773 40.3848 50.2902C40.6907 50.6013 41.1547 50.6871 41.5448 50.5155 42.9051 49.9147 44.1495 50.7086 45.8789 52.3391L30.5459 70.4468ZM63.6059 72.2275 52.7441 60.76C53.5983 57.6384 51.2571 54.7206 49.0638 52.4893L48.8739 52.2962C46.4695 49.8504 44.1917 47.5333 41.4077 48.2842L38.0226 44.8407 44.3498 38.4044 47.735 41.8478C46.9968 44.6905 49.2851 47.0076 51.6896 49.4535L51.8794 49.6466C54.0729 51.8778 56.9411 54.2593 60.0099 53.3904L71.283 64.4395 63.6059 72.2275Z" fill="#C96984" fill-rule="evenodd"/></g></g><path d="M170.267 1189.4 157.75 1177.13C157.444 1176.83 156.99 1176.75 156.6 1176.92 154.923 1177.66 152.92 1176.73 150.115 1173.87L149.925 1173.68C149.777 1173.53 149.651 1173.39 149.503 1173.25L151.665 1170.7C156.031 1172.35 160.998 1173.22 165.406 1168.73 169.128 1164.95 171.111 1158.91 170.457 1153.34 170.404 1152.93 170.141 1152.59 169.751 1152.45 169.371 1152.31 168.949 1152.42 168.664 1152.71L159.121 1162.41C157.054 1161.75 154.955 1160.47 153.51 1158.98 152.171 1157.65 151.254 1155.99 150.621 1153.78L160.165 1144.07C160.449 1143.78 160.544 1143.35 160.418 1142.97 160.291 1142.58 159.954 1142.3 159.553 1142.25 153.932 1141.54 147.658 1143.61 143.946 1147.39 139.843 1151.56 140.761 1155.98 142.501 1160.88L141.583 1161.71C141.183 1161.49 140.687 1161.54 140.35 1161.88L138.399 1163.86 121.505 1146.68 122.064 1146.11C122.285 1145.88 122.401 1145.57 122.37 1145.25 122.338 1144.93 122.169 1144.64 121.916 1144.47L117.16 1141.19C116.738 1140.9 116.179 1140.95 115.821 1141.31L112.309 1144.89C111.951 1145.25 111.898 1145.82 112.183 1146.25L115.41 1151.09C115.589 1151.36 115.874 1151.53 116.179 1151.55 116.211 1151.55 116.243 1151.55 116.274 1151.55 116.549 1151.55 116.823 1151.44 117.023 1151.24L117.582 1150.67 134.476 1167.85 132.746 1169.61 115.937 1184.64C112.394 1188.25 112.394 1194.1 115.937 1197.71 117.656 1199.46 119.934 1200.41 122.359 1200.41 124.785 1200.41 127.062 1199.45 128.834 1197.64L144.146 1179.57 144.325 1179.75C147.13 1182.6 148.048 1184.63 147.32 1186.35 147.151 1186.74 147.236 1187.21 147.531 1187.52L159.595 1200.25C159.796 1200.45 160.059 1200.57 160.344 1200.58 160.344 1200.58 160.354 1200.58 160.354 1200.58 160.629 1200.58 160.903 1200.46 161.103 1200.27L170.288 1190.93C170.489 1190.72 170.594 1190.45 170.594 1190.16 170.594 1189.88 170.478 1189.61 170.267 1189.4ZM114.439 1145.78 116.717 1143.46 119.691 1145.52 116.454 1148.81 114.439 1145.78ZM120.123 1148.3 136.922 1165.39 135.984 1166.34 119.185 1149.25 120.123 1148.3ZM145.454 1148.92C148.185 1146.14 152.698 1144.38 157.012 1144.28L148.712 1152.72C148.449 1152.99 148.343 1153.37 148.438 1153.74 149.155 1156.59 150.336 1158.81 152.034 1160.51 153.848 1162.38 156.59 1163.97 159.173 1164.66 159.542 1164.75 159.922 1164.65 160.186 1164.38L168.474 1155.95C168.359 1160.16 166.682 1164.4 163.919 1167.22 160.354 1170.85 156.474 1170.32 151.749 1168.43 151.327 1168.26 150.853 1168.39 150.568 1168.73L148.058 1171.69C146.73 1170.17 146.139 1169 146.677 1167.75 146.846 1167.34 146.761 1166.88 146.455 1166.57L145.274 1165.36 146.835 1163.96C147.278 1163.56 147.32 1162.89 146.93 1162.45 146.54 1162 145.876 1161.96 145.443 1162.35L143.777 1163.84 143.144 1163.2 144.452 1162.03C144.779 1161.74 144.895 1161.27 144.747 1160.85 142.944 1155.9 142.016 1152.42 145.454 1148.92ZM127.305 1196.21C124.584 1198.97 120.166 1198.97 117.445 1196.21 114.724 1193.44 114.724 1188.94 117.392 1186.23L133.232 1172.07 133.864 1172.71 127.389 1178.51C126.946 1178.89 126.904 1179.58 127.294 1180.02 127.505 1180.25 127.79 1180.38 128.085 1180.38 128.328 1180.38 128.581 1180.3 128.781 1180.11L135.362 1174.24 137.144 1176.05C137.45 1176.36 137.914 1176.45 138.304 1176.27 139.664 1175.67 140.909 1176.47 142.638 1178.1L127.305 1196.21ZM160.365 1197.99 149.503 1186.52C150.357 1183.4 148.016 1180.48 145.823 1178.25L145.633 1178.06C143.229 1175.61 140.951 1173.29 138.167 1174.04L134.782 1170.6 141.109 1164.16 144.494 1167.61C143.756 1170.45 146.044 1172.77 148.449 1175.21L148.638 1175.41C150.832 1177.64 153.7 1180.02 156.769 1179.15L168.042 1190.2 160.365 1197.99Z" fill="#C96984" fill-rule="evenodd"/><g filter="url(#fx1)" transform="translate(105 1174)"><g><path d="M16.7408 16.7395C15.7741 17.7061 15.2408 18.995 15.2408 20.3617 15.2408 21.7283 15.7741 23.0172 16.7408 23.9839 17.7408 24.9839 19.0519 25.4839 20.363 25.4839 21.6741 25.4839 22.9852 24.9839 23.9852 23.9839 25.9741 21.995 25.9741 18.7394 23.9852 16.7506 21.9741 14.7395 18.7297 14.7395 16.7408 16.7395ZM22.3963 22.395C21.263 23.5283 19.4297 23.5172 18.3075 22.395 17.763 21.8505 17.463 21.1172 17.463 20.3505 17.463 19.5728 17.763 18.8506 18.3075 18.3061 18.8741 17.7394 19.6075 17.4617 20.3519 17.4617 21.0963 17.4617 21.8297 17.7394 22.3963 18.3061 23.5297 19.4394 23.5297 21.2728 22.3963 22.395Z" fill="#C96984" fill-rule="evenodd"/></g></g><path d="M118.5 1187.5C117.533 1188.47 117 1189.75 117 1191.12 117 1192.49 117.533 1193.78 118.5 1194.74 119.5 1195.74 120.811 1196.24 122.122 1196.24 123.433 1196.24 124.744 1195.74 125.744 1194.74 127.733 1192.75 127.733 1189.5 125.744 1187.51 123.733 1185.5 120.489 1185.5 118.5 1187.5ZM124.155 1193.15C123.022 1194.29 121.189 1194.28 120.067 1193.15 119.522 1192.61 119.222 1191.88 119.222 1191.11 119.222 1190.33 119.522 1189.61 120.067 1189.07 120.633 1188.5 121.367 1188.22 122.111 1188.22 122.855 1188.22 123.589 1188.5 124.155 1189.07 125.289 1190.2 125.289 1192.03 124.155 1193.15Z" fill="#C96984" fill-rule="evenodd"/></g></svg>