<svg width="21" height="21" xmlns="http://www.w3.org/2000/svg" xmlns:xlink="http://www.w3.org/1999/xlink" xml:space="preserve" overflow="hidden"><g transform="translate(-28 -504)"><path d="M14.9104 18.9268C14.7484 18.8188 14.2842 17.9875 13.6904 16.7674 13.1721 15.6878 12.6862 14.7916 12.6323 14.7916 12.5675 14.7916 12.5243 15.04 12.5243 15.3315 12.5243 15.9901 12.3192 16.4327 11.9413 16.6055 11.3798 16.8646 10.3649 17.0698 10.1706 16.9618 10.0734 16.9078 9.61996 16.3356 9.17729 15.6986 8.4539 14.6513 7.90326 14.0251 7.00713 13.2477 6.79119 13.0641 6.70482 12.859 6.65083 12.4055 6.53207 11.4446 6.79119 11.0127 7.48219 11.0127 7.74131 11.0127 8.00043 10.9372 8.1192 10.8292 8.23796 10.732 8.48629 10.6457 8.68063 10.6457 9.4796 10.6457 10.0086 11.3906 9.88988 12.3515 9.83589 12.8266 9.86828 12.9454 10.0842 13.2261 10.2246 13.4096 10.3649 13.5284 10.3973 13.496 10.4189 13.4636 10.5701 13.1613 10.7212 12.8266L11.0019 12.2112 10.5809 11.7901C10.3002 11.5094 10.1166 11.2071 10.0302 10.8616 9.93306 10.4513 9.82509 10.3002 9.49039 10.0842 8.71302 9.59836 9.08011 8.99374 9.91147 9.40402 10.4081 9.65235 10.6241 9.92227 10.786 10.5485 10.9048 10.9696 11.1423 11.2503 11.6821 11.585 12.1572 11.8873 12.2544 12.1572 12.0384 12.6431 11.9305 12.8698 11.7577 13.0857 11.639 13.1289 11.531 13.1613 11.3798 13.3449 11.2935 13.5392 11.1315 13.9171 10.6457 14.3598 10.3865 14.3598 9.77111 14.3598 8.88577 13.2261 9.00454 12.5999 9.1233 12.0492 9.10171 11.7577 8.92896 11.585 8.7886 11.4446 8.73462 11.4554 8.49709 11.7037 8.18398 12.0168 8.1192 12.0276 7.73051 11.8765 7.46059 11.7793 7.4498 11.7901 7.4498 12.1572 7.4498 12.4379 7.52537 12.5999 7.74131 12.7726 8.38912 13.3017 8.93976 13.9279 9.58756 14.8456 10.6349 16.3464 10.4621 16.2168 11.1099 16.0333L11.6606 15.8605 11.6606 15.3962C11.6606 14.8024 11.8441 14.2734 12.0924 14.1438 12.3839 13.9819 12.9778 14.0143 13.2153 14.1978 13.3341 14.2842 13.8739 15.2451 14.4029 16.3356 15.0292 17.5772 15.4502 18.3006 15.5474 18.3006 15.677 18.3006 15.7202 18.117 15.7633 17.4908 15.8065 16.897 15.8821 16.5947 16.0333 16.4003 16.9078 15.2775 17.2749 14.7376 17.2749 14.5757 17.2749 14.4677 17.3937 14.2302 17.5448 14.0574 17.696 13.8739 17.8147 13.6364 17.8147 13.5068 17.8147 13.2153 18.3978 12.8482 18.8728 12.8482 19.0564 12.8482 19.2183 12.805 19.2183 12.7618 19.2183 12.7078 19.0132 12.5243 18.7649 12.3407 18.1494 11.8981 17.7068 11.477 17.7068 11.3474 17.7068 11.2827 17.9227 10.9911 18.1926 10.6888 18.4625 10.3865 18.6785 10.1058 18.6785 10.0518 18.6785 9.99784 18.6029 9.78191 18.5165 9.57677 18.3006 9.05852 18.3114 8.36753 18.5273 7.98964 18.6245 7.82768 18.8944 7.56856 19.1319 7.41741L19.553 7.14749 18.6029 7.06111C17.7715 6.99633 17.5664 7.01792 17.005 7.22306 16.2276 7.49298 15.9145 7.50378 15.3315 7.27705 14.9752 7.13669 14.8348 7.12589 14.5865 7.23386 13.9711 7.48219 13.6904 7.35263 13.3341 6.64004 13.0749 6.12179 13.0102 5.85187 13.0102 5.31203L13.0102 4.64263 12.6323 4.53466C12.4271 4.48067 12.1896 4.42669 12.1248 4.42669 11.8981 4.42669 11.5526 4.01641 11.5526 3.75729 11.5526 3.61693 11.6498 3.3902 11.7685 3.23904 11.9845 2.95833 12.06 2.59123 11.8873 2.59123 11.7253 2.59123 11.0127 3.76809 11.0127 4.02721 11.0127 4.63183 9.82509 5.88426 8.99374 6.15418 8.69143 6.26215 8.58346 6.25135 8.34593 6.1002 8.0976 5.93824 8.07601 5.86267 8.13 5.4092 8.17318 5.00972 8.16239 4.95573 8.05442 5.11769 7.63334 5.79789 7.54697 5.86267 7.02872 5.77629 6.7588 5.7331 6.21896 5.68992 5.85187 5.67912 5.25804 5.66832 5.12848 5.62514 4.93414 5.3984 4.80458 5.24725 4.48067 4.99892 4.21075 4.83697 3.94083 4.67502 3.51976 4.30793 3.26064 4.00562 2.80717 3.47657 2.77478 3.45498 2.22414 3.45498 1.71669 3.45498 1.63032 3.49817 1.26323 3.86526 1.04729 4.09199 0.863745 4.31872 0.863745 4.36191 0.863745 4.56705 1.78147 6.04621 1.91103 6.04621 1.98661 6.04621 2.38609 5.89506 2.77478 5.72231 3.17426 5.53876 3.60613 5.4092 3.7249 5.42 3.99482 5.46318 4.52386 6.4133 4.53466 6.86677 4.53466 7.25545 4.88016 7.60095 5.89506 8.28115 6.22976 8.49709 6.47808 8.74541 6.47808 8.85338 6.47808 9.1125 6.20816 9.31764 5.95984 9.23127 5.7547 9.17729 5.7547 9.18808 5.88426 9.57677 6.03542 10.0194 6.01382 10.3325 5.7547 11.1531 5.62514 11.5526 5.62514 11.7685 5.71151 12.2112 5.88426 13.0102 5.62514 13.4204 4.84777 13.55 4.36191 13.6364 3.7357 13.3988 3.56295 13.0533 3.47657 12.9022 3.45498 12.5999 3.49817 12.2328 3.56295 11.7145 3.51976 11.5418 3.13107 10.6349 2.40769 8.92896 2.51566 8.71302 4.12438 8.76701L5.18247 8.7994 4.89095 8.58346C4.21075 8.1084 3.77888 7.59016 3.77888 7.25545 3.77888 6.87757 3.57374 6.37012 3.43338 6.37012 3.3794 6.37012 3.0555 6.48888 2.6992 6.64004 1.86785 6.98553 1.6951 6.98553 1.25243 6.56446 0.809761 6.14338 0 4.63183 0 4.24314 0 4.03801 0.183546 3.77888 0.626215 3.34701 1.23084 2.74239 1.25243 2.73159 1.97582 2.66681 2.92593 2.58044 3.27143 2.7208 3.87605 3.44418 4.13518 3.75729 4.52386 4.09199 4.7398 4.19996 4.95573 4.31872 5.22565 4.51307 5.34442 4.63183 5.50637 4.82617 5.62514 4.85856 5.94904 4.80458 6.19737 4.76139 6.48888 4.79378 6.73721 4.90175 7.1151 5.0637 7.12589 5.0637 7.27705 4.77219 7.48219 4.3835 8.74541 3.17426 9.02613 3.08789 9.25286 3.02311 9.60916 3.24984 9.60916 3.45498 9.60916 3.50896 9.4688 3.93004 9.28525 4.3835 9.1125 4.84777 8.98294 5.24725 9.01533 5.26884 9.03693 5.29044 9.30685 5.0637 9.59836 4.77219 10.0086 4.36191 10.149 4.14597 10.149 3.90844 10.149 3.47657 11.2071 1.92183 11.5958 1.79227 12.0384 1.63032 12.4379 1.82466 12.6755 2.31052 12.8698 2.71 12.8698 2.77478 12.7186 3.20665L12.5567 3.67091 12.9994 3.78968C13.8091 4.00562 14.1222 4.44828 13.8847 5.02051 13.7335 5.37681 13.7335 5.45239 13.9171 5.91665 14.0251 6.19737 14.1654 6.4241 14.2086 6.4133 14.2626 6.4133 14.4785 6.38091 14.6837 6.32693 14.9644 6.27294 15.1803 6.30534 15.5366 6.45649L16.0117 6.67243 16.7782 6.40251C17.534 6.14338 17.5664 6.13259 18.8944 6.26215 20.2656 6.40251 20.7623 6.55366 20.881 6.85597 21.0754 7.37422 20.8054 7.70892 20.0065 7.94645 19.6286 8.05442 19.3695 8.20557 19.2507 8.38912 19.078 8.64824 19.0888 8.70223 19.3263 9.38243 19.553 10.0518 19.5638 10.1274 19.4019 10.4189 19.3155 10.6025 19.1427 10.84 19.0132 10.948 18.8836 11.0667 18.7864 11.1963 18.7864 11.2395 18.7864 11.2935 19.0456 11.531 19.3695 11.7685 20.0173 12.2544 20.244 12.697 20.0821 13.1181 19.9741 13.4096 19.7042 13.55 19.0888 13.658 18.7649 13.7119 18.6785 13.7659 18.6785 13.9387 18.6785 14.0682 18.5381 14.3058 18.3546 14.4677 18.1818 14.6297 18.0307 14.8456 18.0307 14.932 18.0307 15.1155 17.6204 15.7417 17.0482 16.4327 16.6595 16.897 16.6271 16.9834 16.6271 17.5988 16.6271 18.3114 16.4327 18.8188 16.098 19.0024 15.7849 19.1643 15.1911 19.1319 14.9104 18.9268ZM4.89095 12.06C4.84777 11.5526 4.88016 11.2179 5.00972 10.8184 5.24725 10.1274 5.20406 9.8143 4.85856 9.64155 4.62103 9.52278 3.56295 9.43641 3.56295 9.53358 3.56295 9.55517 3.7357 9.96545 3.94083 10.4405 4.24314 11.1531 4.31872 11.4554 4.31872 12.0276L4.31872 12.7402 4.64263 12.7402 4.95573 12.7402 4.89095 12.06Z" fill="#C96984" transform="matrix(1 0 0 -1.00778 28.0271 525)"/><path d="M7.39581 9.60916C7.24466 9.1449 7.87087 8.88577 8.13 9.30685 8.21637 9.43641 8.20557 9.53358 8.1084 9.65235 7.90326 9.90067 7.48219 9.86828 7.39581 9.60916Z" fill="#C96984" transform="matrix(1 0 0 -1.00778 28.0271 525)"/></g></svg>