<svg width="94" height="94" xmlns="http://www.w3.org/2000/svg" xmlns:xlink="http://www.w3.org/1999/xlink" xml:space="preserve" overflow="hidden"><defs><filter id="fx0" x="-10%" y="-10%" width="120%" height="120%" filterUnits="userSpaceOnUse" primitiveUnits="userSpaceOnUse"><feComponentTransfer color-interpolation-filters="sRGB"><feFuncR type="discrete" tableValues="0 0"/><feFuncG type="discrete" tableValues="0 0"/><feFuncB type="discrete" tableValues="0 0"/><feFuncA type="linear" slope="0.188235" intercept="0"/></feComponentTransfer><feGaussianBlur stdDeviation="4.58333 4.58333"/></filter><filter id="fx1" x="-10%" y="-10%" width="120%" height="120%" filterUnits="userSpaceOnUse" primitiveUnits="userSpaceOnUse"><feComponentTransfer color-interpolation-filters="sRGB"><feFuncR type="discrete" tableValues="0 0"/><feFuncG type="discrete" tableValues="0 0"/><feFuncB type="discrete" tableValues="0 0"/><feFuncA type="linear" slope="0.188235" intercept="0"/></feComponentTransfer><feGaussianBlur stdDeviation="4.58333 4.58333"/></filter><clipPath id="clip2"><rect x="95" y="865" width="94" height="94"/></clipPath></defs><g clip-path="url(#clip2)" transform="translate(-95 -865)"><g filter="url(#fx0)" transform="translate(94 864)"><g><path d="M80.2798 49.9059C80.2798 33.1504 66.6509 19.5215 49.8954 19.5215 46.475 19.5215 43.1176 20.088 39.9281 21.2002 39.8547 21.2316 39.7917 21.2736 39.7288 21.3156 37.3471 17.6644 33.2343 15.2408 28.5654 15.2408 21.2211 15.2408 15.2408 21.2211 15.2408 28.5654 15.2408 33.2343 17.6644 37.3471 21.3156 39.7288 21.2736 39.7917 21.2211 39.8547 21.2002 39.9281 20.088 43.1281 19.5215 46.4855 19.5215 49.8954 19.5215 60.0934 24.5785 69.1374 32.3215 74.6456 32.374 74.6876 32.4369 74.7401 32.4999 74.7715 37.4311 78.2339 43.4324 80.2798 49.9059 80.2798 56.3793 80.2798 62.3807 78.2339 67.3119 74.7715 67.3748 74.7401 67.4378 74.6876 67.4902 74.6456 75.2227 69.1479 80.2798 60.1144 80.2798 49.9059ZM17.3287 28.5759C17.3287 22.3857 22.3648 17.3496 28.555 17.3496 34.7451 17.3496 39.7812 22.3857 39.7812 28.5759 39.7812 34.7661 34.7451 39.8022 28.555 39.8022 22.3648 39.8022 17.3287 34.7661 17.3287 28.5759ZM21.6093 49.9059C21.6093 46.7583 22.1234 43.6737 23.1307 40.736 24.7884 41.4809 26.6245 41.9006 28.555 41.9006 35.9097 41.9006 41.8796 35.9202 41.8796 28.5759 41.8796 26.6454 41.4599 24.8094 40.715 23.1516 43.6632 22.1444 46.7478 21.6303 49.8849 21.6303 65.4863 21.6303 78.1709 34.315 78.1709 49.9164 78.1709 58.7925 74.0581 66.7243 67.6371 71.9178L65.9584 58.4882C65.9584 58.4567 65.9479 58.4148 65.9374 58.3833 65.1505 54.9629 61.4259 51.9623 57.7538 51.8364L56.1695 51.8364C59.0128 49.7905 60.9538 46.4645 60.9538 42.8658 60.9538 36.9694 55.7813 31.7969 49.8849 31.7969 43.9885 31.7969 38.816 36.9694 38.816 42.8658 38.816 46.4645 40.7465 49.7905 43.6003 51.8364L41.9845 51.8364C38.3543 51.9623 34.6192 54.9524 33.8324 58.3833 33.8219 58.4148 33.8219 58.4567 33.8114 58.4882L32.1327 71.9178C25.7222 66.7138 21.6093 58.782 21.6093 49.9059ZM49.035 57.2816 48.0278 53.9242 49.8849 53.9242C49.8849 53.9242 49.8849 53.9242 49.8849 53.9242 49.8849 53.9242 49.8849 53.9242 49.8849 53.9242L51.7419 53.9242 50.7347 57.2816 49.035 57.2816ZM40.9144 42.8553C40.9144 38.155 45.195 33.8848 49.8849 33.8848 54.5747 33.8848 58.8554 38.1655 58.8554 42.8553 58.8554 47.5452 54.5747 51.8259 49.8849 51.8259 45.195 51.8259 40.9144 47.5557 40.9144 42.8553ZM45.835 53.9347 47.1885 58.4567 45.6567 77.8876C41.418 77.2476 37.4835 75.6634 34.0737 73.3551L35.8888 58.803C36.4868 56.2954 39.3511 54.0292 42.016 53.9347L45.835 53.9347ZM52.5918 58.4462 53.9452 53.9242 57.7328 53.9242C60.4292 54.0187 63.2935 56.2849 63.8915 58.7925L65.7066 73.3447C62.2967 75.6529 58.3623 77.2371 54.1236 77.8771L52.5918 58.4462ZM47.7445 78.108 49.2239 59.3905 50.5564 59.3905 52.0357 78.108C51.3223 78.1604 50.6088 78.2024 49.8954 78.2024 49.1714 78.1919 48.458 78.1604 47.7445 78.108Z" fill="#C96984" fill-rule="evenodd"/></g></g><path d="M171.039 910.665C171.039 893.909 157.41 880.281 140.654 880.281 137.234 880.281 133.877 880.847 130.687 881.959 130.614 881.991 130.551 882.033 130.488 882.075 128.106 878.424 123.993 876 119.325 876 111.98 876 106 881.98 106 889.325 106 893.993 108.423 898.106 112.075 900.488 112.033 900.551 111.98 900.614 111.959 900.687 110.847 903.887 110.281 907.245 110.281 910.654 110.281 920.853 115.338 929.897 123.081 935.405 123.133 935.447 123.196 935.499 123.259 935.531 128.19 938.993 134.191 941.039 140.665 941.039 147.138 941.039 153.14 938.993 158.071 935.531 158.134 935.499 158.197 935.447 158.249 935.405 165.982 929.907 171.039 920.874 171.039 910.665ZM108.088 889.335C108.088 883.145 113.124 878.109 119.314 878.109 125.504 878.109 130.54 883.145 130.54 889.335 130.54 895.525 125.504 900.561 119.314 900.561 113.124 900.561 108.088 895.525 108.088 889.335ZM112.368 910.665C112.368 907.517 112.883 904.433 113.89 901.495 115.547 902.24 117.384 902.66 119.314 902.66 126.669 902.66 132.639 896.679 132.639 889.335 132.639 887.405 132.219 885.568 131.474 883.911 134.422 882.904 137.507 882.389 140.644 882.389 156.245 882.389 168.93 895.074 168.93 910.675 168.93 919.552 164.817 927.483 158.396 932.677L156.717 919.247C156.717 919.216 156.707 919.174 156.697 919.142 155.91 915.722 152.185 912.721 148.513 912.595L146.929 912.595C149.772 910.55 151.713 907.224 151.713 903.625 151.713 897.729 146.54 892.556 140.644 892.556 134.748 892.556 129.575 897.729 129.575 903.625 129.575 907.224 131.506 910.55 134.359 912.595L132.744 912.595C129.113 912.721 125.378 915.712 124.591 919.142 124.581 919.174 124.581 919.216 124.57 919.247L122.892 932.677C116.481 927.473 112.368 919.541 112.368 910.665ZM139.794 918.041 138.787 914.683 140.644 914.683C140.644 914.683 140.644 914.683 140.644 914.683 140.644 914.683 140.644 914.683 140.644 914.683L142.501 914.683 141.494 918.041 139.794 918.041ZM131.673 903.614C131.673 898.914 135.954 894.644 140.644 894.644 145.334 894.644 149.615 898.925 149.615 903.614 149.615 908.304 145.334 912.585 140.644 912.585 135.954 912.585 131.673 908.315 131.673 903.614ZM136.594 914.694 137.948 919.216 136.416 938.647C132.177 938.007 128.243 936.422 124.833 934.114L126.648 919.562C127.246 917.055 130.11 914.788 132.775 914.694L136.594 914.694ZM143.351 919.205 144.704 914.683 148.492 914.683C151.188 914.778 154.053 917.044 154.651 919.552L156.466 934.104C153.056 936.412 149.121 937.996 144.883 938.636L143.351 919.205ZM138.504 938.867 139.983 920.15 141.315 920.15 142.795 938.867C142.081 938.919 141.368 938.961 140.654 938.961 139.931 938.951 139.217 938.919 138.504 938.867Z" fill="#C96984" fill-rule="evenodd"/><g filter="url(#fx1)" transform="translate(103 870)"><g><path d="M20.2045 29.8122 20.2045 29.2443C21.0545 29.0943 21.7345 28.7193 22.2545 28.1301 23.1644 27.0908 23.1744 25.7837 23.1644 25.4301 23.2144 23.1801 21.5345 22.1301 20.2045 21.7552L20.2045 18.7231C21.0445 19.0123 21.1545 19.6552 21.1645 19.9016 21.1745 20.4802 21.6145 20.9516 22.1645 20.9516L22.1645 20.9516C22.7144 20.9516 23.1644 20.4695 23.1644 19.8802 23.1644 19.0231 22.5945 16.9659 20.2045 16.5159L20.2045 16.3124C20.2045 15.7231 19.7545 15.241 19.2045 15.241 18.6545 15.241 18.2045 15.7231 18.2045 16.3124L18.2045 16.5374C17.5545 16.6659 16.7246 16.9445 16.1046 17.5981 15.5446 18.1874 15.2446 18.9802 15.2446 19.8802 15.2446 19.9016 15.2446 19.9123 15.2446 19.9338 15.3146 21.5837 16.3346 22.9123 17.7945 23.2873 17.9145 23.3408 18.0545 23.3944 18.2045 23.448L18.2045 26.8979C17.7645 26.6944 17.3345 26.3301 17.2246 25.6444 17.1346 25.0658 16.6246 24.6587 16.0746 24.7658 15.5346 24.8622 15.1646 25.4194 15.2546 25.9979 15.5546 27.9586 17.0046 28.8372 18.2045 29.1479L18.2045 29.7907C18.2045 30.38 18.6545 30.8622 19.2045 30.8622 19.7545 30.8622 20.2045 30.4014 20.2045 29.8122ZM21.1645 25.398C21.1645 25.4301 21.1645 25.473 21.1645 25.5051 21.1645 25.5158 21.1945 26.2122 20.7845 26.6729 20.6345 26.8336 20.4445 26.9515 20.2045 27.0265L20.2045 24.0158C20.7045 24.2623 21.1945 24.6801 21.1645 25.398ZM17.2446 19.8588C17.2546 19.4516 17.3945 19.2588 17.5045 19.1409 17.6845 18.9481 17.9445 18.8302 18.2145 18.7552L18.2145 21.1873C17.5345 20.973 17.2646 20.373 17.2446 19.8588Z" fill="#C96984" fill-rule="evenodd"/></g></g><path d="M119.964 896.571 119.964 896.003C120.814 895.853 121.494 895.478 122.014 894.889 122.924 893.85 122.934 892.543 122.924 892.189 122.974 889.939 121.294 888.889 119.964 888.514L119.964 885.482C120.804 885.771 120.914 886.414 120.924 886.661 120.934 887.239 121.374 887.711 121.924 887.711L121.924 887.711C122.474 887.711 122.924 887.229 122.924 886.639 122.924 885.782 122.354 883.725 119.964 883.275L119.964 883.071C119.964 882.482 119.514 882 118.964 882 118.414 882 117.964 882.482 117.964 883.071L117.964 883.296C117.314 883.425 116.484 883.704 115.864 884.357 115.304 884.946 115.004 885.739 115.004 886.639 115.004 886.661 115.004 886.671 115.004 886.693 115.074 888.343 116.094 889.671 117.554 890.046 117.674 890.1 117.814 890.154 117.964 890.207L117.964 893.657C117.524 893.453 117.094 893.089 116.984 892.404 116.894 891.825 116.384 891.418 115.834 891.525 115.294 891.621 114.924 892.178 115.014 892.757 115.314 894.718 116.764 895.596 117.964 895.907L117.964 896.55C117.964 897.139 118.414 897.621 118.964 897.621 119.514 897.621 119.964 897.161 119.964 896.571ZM120.924 892.157C120.924 892.189 120.924 892.232 120.924 892.264 120.924 892.275 120.954 892.971 120.544 893.432 120.394 893.593 120.204 893.711 119.964 893.786L119.964 890.775C120.464 891.021 120.954 891.439 120.924 892.157ZM117.004 886.618C117.014 886.211 117.154 886.018 117.264 885.9 117.444 885.707 117.704 885.589 117.974 885.514L117.974 887.946C117.294 887.732 117.024 887.132 117.004 886.618Z" fill="#C96984" fill-rule="evenodd"/></g></svg>