<svg width="181" height="157" xmlns="http://www.w3.org/2000/svg" xmlns:xlink="http://www.w3.org/1999/xlink" xml:space="preserve" overflow="hidden"><defs><filter id="fx0" x="-10%" y="-10%" width="120%" height="120%" filterUnits="userSpaceOnUse" primitiveUnits="userSpaceOnUse"><feComponentTransfer color-interpolation-filters="sRGB"><feFuncR type="discrete" tableValues="0 0"/><feFuncG type="discrete" tableValues="0 0"/><feFuncB type="discrete" tableValues="0 0"/><feFuncA type="linear" slope="0.188235" intercept="0"/></feComponentTransfer><feGaussianBlur stdDeviation="4.58333 4.58333"/></filter><filter id="fx1" x="-10%" y="-10%" width="120%" height="120%" filterUnits="userSpaceOnUse" primitiveUnits="userSpaceOnUse"><feComponentTransfer color-interpolation-filters="sRGB"><feFuncR type="discrete" tableValues="0 0"/><feFuncG type="discrete" tableValues="0 0"/><feFuncB type="discrete" tableValues="0 0"/><feFuncA type="linear" slope="0.188235" intercept="0"/></feComponentTransfer><feGaussianBlur stdDeviation="4.58333 4.58333"/></filter><filter id="fx2" x="-10%" y="-10%" width="120%" height="120%" filterUnits="userSpaceOnUse" primitiveUnits="userSpaceOnUse"><feComponentTransfer color-interpolation-filters="sRGB"><feFuncR type="discrete" tableValues="0 0"/><feFuncG type="discrete" tableValues="0 0"/><feFuncB type="discrete" tableValues="0 0"/><feFuncA type="linear" slope="0.188235" intercept="0"/></feComponentTransfer><feGaussianBlur stdDeviation="4.58333 4.58333"/></filter><clipPath id="clip3"><rect x="2698" y="134" width="181" height="157"/></clipPath></defs><g clip-path="url(#clip3)" transform="translate(-2698 -134)"><g filter="url(#fx0)" transform="translate(2777 188)"><g><path d="M83.6853 15.6846C80.3668 14.4592 75.8038 15.6846 73.4186 20.4556 71.2668 24.7574 64.6556 36.0724 62.2186 40.1917 60.5593 39.592 58.4852 39.6181 56.1778 40.7913 54.8038 41.5735 52.1334 42.7206 49.0482 44.0502 41.8926 47.1527 32.0926 51.3763 25.3 56.4081 24.8852 56.747 15.2407 65.2463 15.2407 85.973 15.2407 87.407 16.4074 88.5802 17.8333 88.5802L33.0778 88.5802C34.1667 88.5802 35.1519 87.8762 35.5148 86.8334 36.3185 84.487 41.0371 79.2466 63.4371 70.4345L64.4742 70.0173C70.2038 67.7231 72.563 63.5516 75.1038 56.1995 76.1668 53.1231 78.2408 47.4917 80.4445 41.5474 84.3075 31.1188 86.8742 24.1578 87.3409 22.2806 88.0927 19.4649 86.5631 16.7535 83.6853 15.6846ZM75.6223 39.6963C73.4186 45.6667 71.3186 51.3242 70.2297 54.4527 67.6112 62.0134 65.7445 63.8645 62.5816 65.142L61.5704 65.5331C44.3815 72.2856 34.7111 77.9952 31.4704 83.3138L20.5037 83.3138C21.2296 67.1234 28.5407 60.4491 28.5148 60.4491 34.6852 55.8867 44.1741 51.7934 51.0961 48.7952 54.4408 47.3613 57.0852 46.2142 58.589 45.3538 59.4186 44.9367 60.5075 44.6499 61.026 45.5624 61.5445 46.4749 61.4665 48.4824 59.0815 50.0206 52.963 54.0095 44.0704 59.0934 43.9665 59.1456 42.7223 59.8495 42.2815 61.4399 42.9815 62.6913 43.6815 63.9427 45.2628 64.3859 46.5074 63.682 46.6112 63.6299 55.6075 58.4677 61.8556 54.4006 66.1853 51.5849 67.1445 47.1527 65.9519 43.946 67.4816 41.3649 75.4927 27.7556 77.9816 22.7239 79.0705 20.5339 80.5742 20.3774 81.1705 20.3774 81.8446 20.4035 82.2594 20.7424 82.2853 20.8989 81.9223 22.7239 78.5779 31.7446 75.6223 39.6963Z" fill="#C96984" fill-rule="evenodd"/></g></g><path d="M2857.44 200.444C2854.13 199.218 2849.56 200.444 2847.18 205.215 2845.03 209.517 2838.41 220.832 2835.98 224.951 2834.32 224.351 2832.24 224.377 2829.94 225.55 2828.56 226.333 2825.89 227.48 2822.81 228.809 2815.65 231.912 2805.85 236.135 2799.06 241.167 2798.64 241.506 2789 250.005 2789 270.732 2789 272.166 2790.17 273.339 2791.59 273.339L2806.84 273.339C2807.93 273.339 2808.91 272.635 2809.27 271.593 2810.08 269.246 2814.8 264.006 2837.2 255.194L2838.23 254.776C2843.96 252.482 2846.32 248.311 2848.86 240.959 2849.93 237.882 2852 232.251 2854.2 226.307 2858.07 215.878 2860.63 208.917 2861.1 207.04 2861.85 204.224 2860.32 201.513 2857.44 200.444ZM2849.38 224.455C2847.18 230.426 2845.08 236.083 2843.99 239.212 2841.37 246.773 2839.5 248.624 2836.34 249.901L2835.33 250.292C2818.14 257.045 2808.47 262.754 2805.23 268.073L2794.26 268.073C2794.99 251.883 2802.3 245.208 2802.27 245.208 2808.44 240.646 2817.93 236.553 2824.86 233.554 2828.2 232.12 2830.84 230.973 2832.35 230.113 2833.18 229.696 2834.27 229.409 2834.78 230.322 2835.3 231.234 2835.23 233.242 2832.84 234.78 2826.72 238.769 2817.83 243.853 2817.73 243.905 2816.48 244.609 2816.04 246.199 2816.74 247.45 2817.44 248.702 2819.02 249.145 2820.27 248.441 2820.37 248.389 2829.37 243.227 2835.61 239.16 2839.94 236.344 2840.9 231.912 2839.71 228.705 2841.24 226.124 2849.25 212.515 2851.74 207.483 2852.83 205.293 2854.33 205.137 2854.93 205.137 2855.6 205.163 2856.02 205.502 2856.04 205.658 2855.68 207.483 2852.34 216.504 2849.38 224.455Z" fill="#C96984" fill-rule="evenodd"/><g filter="url(#fx1)" transform="translate(2697 188)"><g><path d="M78.2334 55.7156C71.5015 50.8813 61.5355 46.6899 54.2775 43.6556 51.1482 42.3442 48.4397 41.2127 46.9408 40.3899 44.6531 39.2842 42.602 39.2585 40.919 39.8499 38.4474 35.7613 31.7416 24.6271 29.5853 20.3842 27.1926 15.6785 22.5379 14.4699 19.172 15.6785 16.2534 16.7328 14.7019 19.4071 15.4117 22.1585 15.885 24.0099 18.4883 30.8756 22.4065 41.1613 24.6419 47.0242 26.7453 52.5784 27.8235 55.6127 30.4005 62.8641 32.7672 66.9784 38.6052 69.2412L39.6568 69.6527C62.3767 78.3441 67.1626 83.5126 67.9778 85.8269 68.346 86.8555 69.3454 87.5498 70.4497 87.5498L85.9118 87.5498C87.3581 87.5498 88.5415 86.3926 88.5415 84.9783 88.568 64.5355 78.7858 56.1784 78.2334 55.7156ZM72.1328 82.4326C68.8458 77.1869 59.0371 71.5555 41.6027 64.8955L40.5774 64.5098C37.369 63.2498 35.4757 61.4498 32.8198 53.967 31.7153 50.8813 29.6116 45.3013 27.3504 39.4127 24.3524 31.5699 20.9602 22.6728 20.5131 20.8985 20.5657 20.7699 20.9602 20.4614 21.6702 20.4356 22.275 20.4356 23.8002 20.5642 24.9046 22.7499 27.4553 27.7128 35.5809 41.1356 37.1061 43.6813 35.8967 46.8442 36.8694 51.1899 41.2609 53.9927 47.5983 58.0041 56.7493 63.0955 56.8282 63.147 58.0907 63.8413 59.6945 63.4041 60.4045 62.1698 61.1145 60.9355 60.6675 59.367 59.4055 58.6727 59.3264 58.6213 50.3068 53.607 44.0746 49.6727 41.6555 48.1299 41.5764 46.1499 42.1023 45.2756 42.6283 44.3756 43.7327 44.6584 44.469 45.0184 46.0994 45.9184 48.7816 47.0242 52.174 48.4641 59.1949 51.4213 68.8193 55.4584 74.92 59.8298 74.9989 59.907 82.467 66.4898 83.2033 82.5098L72.1328 82.5098Z" fill="#C96984" fill-rule="evenodd"/></g></g><path d="M2771.99 240.475C2765.26 235.64 2755.29 231.449 2748.04 228.415 2744.91 227.103 2742.2 225.972 2740.7 225.149 2738.41 224.043 2736.36 224.018 2734.68 224.609 2732.21 220.52 2725.5 209.386 2723.34 205.143 2720.95 200.438 2716.3 199.229 2712.93 200.438 2710.01 201.492 2708.46 204.166 2709.17 206.918 2709.64 208.769 2712.25 215.635 2716.17 225.92 2718.4 231.783 2720.5 237.338 2721.58 240.372 2724.16 247.623 2726.53 251.738 2732.36 254L2733.42 254.412C2756.14 263.103 2760.92 268.272 2761.74 270.586 2762.1 271.615 2763.1 272.309 2764.21 272.309L2779.67 272.309C2781.12 272.309 2782.3 271.152 2782.3 269.737 2782.33 249.295 2772.54 240.938 2771.99 240.475ZM2765.89 267.192C2762.6 261.946 2752.8 256.315 2735.36 249.655L2734.34 249.269C2731.13 248.009 2729.23 246.209 2726.58 238.726 2725.47 235.64 2723.37 230.06 2721.11 224.172 2718.11 216.329 2714.72 207.432 2714.27 205.658 2714.32 205.529 2714.72 205.22 2715.43 205.195 2716.03 205.195 2717.56 205.323 2718.66 207.509 2721.21 212.472 2729.34 225.895 2730.86 228.44 2729.66 231.603 2730.63 235.949 2735.02 238.752 2741.36 242.763 2750.51 247.855 2750.59 247.906 2751.85 248.6 2753.45 248.163 2754.16 246.929 2754.87 245.695 2754.43 244.126 2753.16 243.432 2753.09 243.38 2744.07 238.366 2737.83 234.432 2735.41 232.889 2735.34 230.909 2735.86 230.035 2736.39 229.135 2737.49 229.418 2738.23 229.778 2739.86 230.678 2742.54 231.783 2745.93 233.223 2752.95 236.18 2762.58 240.218 2768.68 244.589 2768.76 244.666 2776.23 251.249 2776.96 267.269L2765.89 267.269Z" fill="#C96984" fill-rule="evenodd"/><g filter="url(#fx2)" transform="translate(2731 133)"><g><path d="M58.6343 102.831 98.2667 81.3827C99.0967 80.9397 99.6414 80.0536 99.6414 79.0894L99.6414 39.2949C99.6414 39.2427 99.6155 39.1906 99.6155 39.1385 99.6155 39.0603 99.5895 38.9821 99.5895 38.9039 99.5377 38.6433 99.4858 38.3827 99.3561 38.1482 99.3302 38.1221 99.3302 38.07 99.3302 38.0439 99.3302 38.0179 99.3042 38.0179 99.3042 38.0179 99.1486 37.7573 98.9671 37.5227 98.7336 37.3143 98.6817 37.2621 98.6039 37.21 98.552 37.184 98.4742 37.1318 98.3964 37.0536 98.2927 37.0015L58.6603 15.5537C57.8821 15.1367 56.9743 15.1367 56.1962 15.5537L16.5897 37.0015C16.486 37.0536 16.4082 37.1318 16.3303 37.184 16.2525 37.2361 16.2007 37.2621 16.1488 37.3143 15.9153 37.5227 15.7338 37.7312 15.5782 38.0179 15.5782 38.0439 15.5522 38.0439 15.5522 38.0439 15.5263 38.07 15.5263 38.1221 15.5263 38.1482 15.4225 38.3827 15.3447 38.6433 15.2928 38.9039 15.2928 38.9821 15.2669 39.0603 15.2669 39.1385 15.2669 39.1906 15.241 39.2427 15.241 39.2949L15.241 79.1154C15.241 80.0797 15.7597 80.9657 16.6157 81.4088L56.2221 102.857C56.274 102.883 56.3259 102.883 56.3778 102.909 56.4296 102.935 56.5074 102.961 56.5593 102.987 56.8446 103.091 57.1559 103.169 57.4671 103.169 57.7784 103.169 58.0637 103.091 58.3749 102.987 58.4268 102.961 58.5046 102.935 58.5565 102.909 58.5565 102.883 58.6084 102.857 58.6343 102.831ZM91.5749 39.2949 57.4153 57.7718 43.0718 50.0058 77.2315 31.5288 91.5749 39.2949ZM60.009 96.1851 60.009 62.3064 94.4539 43.673 94.4539 77.5518 60.009 96.1851ZM57.4153 20.8179 71.7587 28.584 37.599 47.0609 23.2556 39.2949 57.4153 20.8179ZM20.3766 43.673 54.7956 62.3064 54.7956 96.1851 20.3766 77.5518 20.3766 43.673Z" fill="#C96984" fill-rule="evenodd"/></g></g><path d="M2786.39 232.59 2826.03 211.142C2826.86 210.699 2827.4 209.813 2827.4 208.848L2827.4 169.054C2827.4 169.002 2827.37 168.95 2827.37 168.898 2827.37 168.819 2827.35 168.741 2827.35 168.663 2827.3 168.402 2827.25 168.142 2827.12 167.907 2827.09 167.881 2827.09 167.829 2827.09 167.803 2827.09 167.777 2827.06 167.777 2827.06 167.777 2826.91 167.516 2826.73 167.282 2826.49 167.073 2826.44 167.021 2826.36 166.969 2826.31 166.943 2826.23 166.891 2826.16 166.813 2826.05 166.761L2786.42 145.313C2785.64 144.896 2784.73 144.896 2783.96 145.313L2744.35 166.761C2744.25 166.813 2744.17 166.891 2744.09 166.943 2744.01 166.995 2743.96 167.021 2743.91 167.073 2743.67 167.282 2743.49 167.49 2743.34 167.777 2743.34 167.803 2743.31 167.803 2743.31 167.803 2743.29 167.829 2743.29 167.881 2743.29 167.907 2743.18 168.142 2743.1 168.402 2743.05 168.663 2743.05 168.741 2743.03 168.819 2743.03 168.898 2743.03 168.95 2743 169.002 2743 169.054L2743 208.875C2743 209.839 2743.52 210.725 2744.38 211.168L2783.98 232.616C2784.03 232.642 2784.09 232.642 2784.14 232.668 2784.19 232.694 2784.27 232.72 2784.32 232.746 2784.6 232.85 2784.92 232.928 2785.23 232.928 2785.54 232.928 2785.82 232.85 2786.13 232.746 2786.19 232.72 2786.26 232.694 2786.32 232.668 2786.32 232.642 2786.37 232.616 2786.39 232.59ZM2819.33 169.054 2785.17 187.531 2770.83 179.765 2804.99 161.288 2819.33 169.054ZM2787.77 225.944 2787.77 192.065 2822.21 173.432 2822.21 207.311 2787.77 225.944ZM2785.17 150.577 2799.52 158.343 2765.36 176.82 2751.01 169.054 2785.17 150.577ZM2748.14 173.432 2782.55 192.065 2782.55 225.944 2748.14 207.311 2748.14 173.432Z" fill="#C96984" fill-rule="evenodd"/></g></svg>