<svg width="154" height="129" xmlns="http://www.w3.org/2000/svg" xmlns:xlink="http://www.w3.org/1999/xlink" xml:space="preserve" overflow="hidden"><g transform="translate(-2982 -1417)"><path d="M3076.55 1419.8C3075.53 1420.19 3074.84 1421.15 3074.84 1422.24L3074.84 1451.73 3036.62 1451.73C3035.18 1451.73 3034 1452.9 3034 1454.33L3034 1509.3C3034 1510.73 3035.18 1511.9 3036.62 1511.9L3074.84 1511.9 3074.84 1541.39C3074.84 1542.48 3075.53 1543.44 3076.55 1543.83 3077.57 1544.22 3078.72 1543.93 3079.43 1543.13L3132.63 1483.55C3133.07 1483.06 3133.28 1482.44 3133.28 1481.84 3133.28 1481.24 3133.07 1480.62 3132.63 1480.13L3079.43 1420.56C3078.72 1419.7 3077.57 1419.41 3076.55 1419.8ZM3127.17 1481.82 3080.09 1534.53 3080.09 1509.3C3080.09 1507.88 3078.91 1506.71 3077.47 1506.71L3039.24 1506.71 3039.24 1456.92 3077.47 1456.92C3078.91 1456.92 3080.09 1455.75 3080.09 1454.33L3080.09 1429.1 3127.17 1481.82Z" stroke="#D10007" stroke-width="4.32926" stroke-miterlimit="8" fill="#FFFFFF" fill-rule="evenodd"/><path d="M3028.41 1509.39 3028.41 1454.14C3028.41 1452.7 3027.19 1451.53 3025.69 1451.53L3011.71 1451.53C3010.22 1451.53 3009 1452.7 3009 1454.14L3009 1509.39C3009 1510.83 3010.22 1512 3011.71 1512L3025.69 1512C3027.19 1512 3028.41 1510.83 3028.41 1509.39ZM3014.43 1506.78 3014.43 1456.75 3022.98 1456.75 3022.98 1506.78 3014.43 1506.78Z" stroke="#D10007" stroke-width="4.32926" stroke-miterlimit="8" fill="#FFFFFF" fill-rule="evenodd"/><path d="M3003.41 1509.39 3003.41 1454.14C3003.41 1452.7 3002.19 1451.53 3000.69 1451.53L2986.71 1451.53C2985.22 1451.53 2984 1452.7 2984 1454.14L2984 1509.39C2984 1510.83 2985.22 1512 2986.71 1512L3000.69 1512C3002.19 1512 3003.41 1510.83 3003.41 1509.39ZM2989.43 1506.78 2989.43 1456.75 2997.98 1456.75 2997.98 1506.78 2989.43 1506.78Z" stroke="#D10007" stroke-width="4.32926" stroke-miterlimit="8" fill="#FFFFFF" fill-rule="evenodd"/></g></svg>