<svg width="96" height="143" xmlns="http://www.w3.org/2000/svg" xmlns:xlink="http://www.w3.org/1999/xlink" xml:space="preserve" overflow="hidden"><defs><filter id="fx0" x="-10%" y="-10%" width="120%" height="120%" filterUnits="userSpaceOnUse" primitiveUnits="userSpaceOnUse"><feComponentTransfer color-interpolation-filters="sRGB"><feFuncR type="discrete" tableValues="0 0"/><feFuncG type="discrete" tableValues="0 0"/><feFuncB type="discrete" tableValues="0 0"/><feFuncA type="linear" slope="0.188235" intercept="0"/></feComponentTransfer><feGaussianBlur stdDeviation="4.58333 4.58333"/></filter><filter id="fx1" x="-10%" y="-10%" width="120%" height="120%" filterUnits="userSpaceOnUse" primitiveUnits="userSpaceOnUse"><feComponentTransfer color-interpolation-filters="sRGB"><feFuncR type="discrete" tableValues="0 0"/><feFuncG type="discrete" tableValues="0 0"/><feFuncB type="discrete" tableValues="0 0"/><feFuncA type="linear" slope="0.188235" intercept="0"/></feComponentTransfer><feGaussianBlur stdDeviation="4.58333 4.58333"/></filter><filter id="fx2" x="-10%" y="-10%" width="120%" height="120%" filterUnits="userSpaceOnUse" primitiveUnits="userSpaceOnUse"><feComponentTransfer color-interpolation-filters="sRGB"><feFuncR type="discrete" tableValues="0 0"/><feFuncG type="discrete" tableValues="0 0"/><feFuncB type="discrete" tableValues="0 0"/><feFuncA type="linear" slope="0.188235" intercept="0"/></feComponentTransfer><feGaussianBlur stdDeviation="4.58333 4.58333"/></filter><filter id="fx3" x="-10%" y="-10%" width="120%" height="120%" filterUnits="userSpaceOnUse" primitiveUnits="userSpaceOnUse"><feComponentTransfer color-interpolation-filters="sRGB"><feFuncR type="discrete" tableValues="0 0"/><feFuncG type="discrete" tableValues="0 0"/><feFuncB type="discrete" tableValues="0 0"/><feFuncA type="linear" slope="0.188235" intercept="0"/></feComponentTransfer><feGaussianBlur stdDeviation="4.58333 4.58333"/></filter><clipPath id="clip4"><rect x="96" y="727" width="96" height="143"/></clipPath></defs><g clip-path="url(#clip4)" transform="translate(-96 -727)"><g filter="url(#fx0)" transform="translate(95 821)"><g><path d="M68.4881 15.2408 25.015 15.2408 25.015 22.8789 15.2408 22.8789 15.2408 34.317 78.2622 34.317 78.2622 22.8789 68.4881 22.8789 68.4881 15.2408ZM28.662 19.0408 64.841 19.0408 64.841 22.8789 28.662 22.8789 28.662 19.0408ZM74.6152 26.6789 74.6152 30.517 18.8879 30.517 18.8879 26.6789 25.015 26.6789 68.4881 26.6789 74.6152 26.6789Z" fill="#FFFFFF" fill-rule="evenodd"/></g></g><path d="M160.247 833 116.774 833 116.774 840.638 107 840.638 107 852.076 170.021 852.076 170.021 840.638 160.247 840.638 160.247 833ZM120.421 836.8 156.6 836.8 156.6 840.638 120.421 840.638 120.421 836.8ZM166.374 844.438 166.374 848.276 110.647 848.276 110.647 844.438 116.774 844.438 160.247 844.438 166.374 844.438Z" fill="#FFFFFF" fill-rule="evenodd"/><g filter="url(#fx1)" transform="translate(98 726)"><g><path d="M79.8845 55.4466C79.5188 53.2018 78.4765 51.1042 76.8674 49.393L63.8114 35.5194C62.4034 33.4218 60.4285 31.8026 58.1245 30.7906L54.2114 29.0978C54.0468 26.8898 52.5474 24.9946 50.4263 24.3506L49.0182 23.9274 49.0182 18.1682C49.0182 16.9354 48.2868 15.8682 47.1348 15.4266 46.0011 15.0034 44.7394 15.3162 43.9348 16.2362 42.4354 17.9658 40.3325 20.6522 38.7783 23.6514 38.0651 23.8538 21.2423 28.6378 16.4697 42.7138 13.2331 52.2634 16.3966 63.5611 25.8868 76.2755 28.1908 79.3483 29.544 82.9179 29.8 86.5795 30.1657 91.8603 29.2697 99.1099 22.8514 103.636 21.864 104.336 21.4617 105.568 21.8091 106.709 22.1566 107.85 23.1988 108.623 24.3874 108.623L57.3748 108.623C60.7394 108.623 63.7017 106.249 64.4148 102.992L64.4148 102.992C64.4514 102.845 64.4697 102.716 64.4879 102.624 65.2742 99.7539 66.2251 93.9211 64.1771 86.3035 63.08 82.2371 61.2148 78.3179 58.6548 74.6563 56.4605 71.5283 50.8285 65.8059 45.5623 60.6907 46.2571 60.6539 47.3908 60.7459 48.5977 60.8563 51.5234 61.0955 55.1257 61.3715 57.7588 60.5619 58.6914 60.8011 61.2148 61.6291 63.7017 64.0027 65.7131 65.8979 68.2914 66.9651 70.9977 67.0203 74.0879 67.0387 76.5931 66.1187 78.1656 64.2971 79.9394 62.2731 80.5062 59.2923 79.8845 55.4466ZM75.4411 61.8867C74.5999 62.8803 73.1188 63.3955 71.1074 63.3403 69.3337 63.3219 67.6148 62.6043 66.2799 61.3347 62.2571 57.5075 58.1428 56.8819 57.9782 56.8451L57.5028 56.7715 57.064 56.937C55.1805 57.6731 51.5782 57.3971 48.9634 57.1763 47.592 57.0659 46.3851 56.9739 45.4891 57.0107 44.0263 57.0659 42.8011 57.9675 42.2708 59.3291 41.7405 60.6907 42.0697 62.2179 43.112 63.2483 46.2023 66.3211 53.4617 73.4787 55.7474 76.7723 58.0697 80.1027 59.752 83.6355 60.7394 87.2787 62.6045 94.1419 61.7268 99.2939 61.032 101.76L60.9405 102.22C60.5931 103.82 59.1302 104.961 57.4662 104.961L27.1303 104.961C31.8114 100.582 34.0606 94.0683 33.5303 86.3403 33.2194 81.9795 31.6286 77.7291 28.904 74.0859 20.1817 62.4019 17.2011 52.2634 20.0171 43.9466 24.1497 31.729 39.6743 27.2762 39.7108 27.2578 40.7714 27.0554 41.6674 26.3562 42.1794 25.3626 43.1303 23.4858 44.3371 21.7378 45.4525 20.321L45.4525 26.6874 49.4754 27.8834C50.1337 28.0858 50.6091 28.693 50.6457 29.3922L50.7554 31.5634 56.7531 34.1762C58.4537 34.9122 59.8982 36.1266 60.9222 37.6906L74.2891 51.9322C75.3862 53.1098 76.0994 54.5266 76.3371 56.0354 76.7211 58.7587 76.4468 60.7275 75.4411 61.8867Z" fill="#FFFFFF" fill-rule="evenodd"/></g></g><path d="M174.644 778.206C174.278 775.961 173.236 773.863 171.626 772.152L158.57 758.279C157.162 756.181 155.188 754.562 152.884 753.55L148.97 751.857C148.806 749.649 147.306 747.754 145.185 747.11L143.777 746.687 143.777 740.927C143.777 739.695 143.046 738.627 141.894 738.186 140.76 737.763 139.498 738.075 138.694 738.995 137.194 740.725 135.092 743.411 133.537 746.411 132.824 746.613 116.001 751.397 111.229 765.473 107.992 775.023 111.156 786.32 120.646 799.035 122.95 802.107 124.303 805.677 124.559 809.339 124.925 814.619 124.029 821.869 117.611 826.396 116.623 827.095 116.221 828.327 116.568 829.468 116.916 830.609 117.958 831.382 119.147 831.382L152.134 831.382C155.498 831.382 158.461 829.008 159.174 825.751L159.174 825.751C159.21 825.604 159.229 825.475 159.247 825.383 160.033 822.513 160.984 816.68 158.936 809.063 157.839 804.996 155.974 801.077 153.414 797.415 151.22 794.287 145.588 788.565 140.321 783.45 141.016 783.413 142.15 783.505 143.357 783.615 146.282 783.855 149.885 784.131 152.518 783.321 153.45 783.56 155.974 784.388 158.461 786.762 160.472 788.657 163.05 789.724 165.757 789.779 168.847 789.798 171.352 788.878 172.925 787.056 174.698 785.032 175.265 782.051 174.644 778.206ZM170.2 784.646C169.359 785.639 167.878 786.155 165.866 786.099 164.093 786.081 162.374 785.363 161.039 784.094 157.016 780.267 152.902 779.641 152.737 779.604L152.262 779.531 151.823 779.696C149.94 780.432 146.337 780.156 143.722 779.935 142.351 779.825 141.144 779.733 140.248 779.77 138.785 779.825 137.56 780.727 137.03 782.088 136.5 783.45 136.829 784.977 137.871 786.007 140.961 789.08 148.221 796.238 150.506 799.531 152.829 802.862 154.511 806.395 155.498 810.038 157.364 816.901 156.486 822.053 155.791 824.519L155.7 824.979C155.352 826.579 153.889 827.72 152.225 827.72L121.889 827.72C126.57 823.341 128.82 816.827 128.289 809.099 127.979 804.739 126.388 800.488 123.663 796.845 114.941 785.161 111.96 775.023 114.776 766.706 118.909 754.488 134.433 750.035 134.47 750.017 135.53 749.815 136.426 749.115 136.938 748.122 137.889 746.245 139.096 744.497 140.212 743.08L140.212 749.447 144.234 750.643C144.893 750.845 145.368 751.452 145.405 752.151L145.514 754.323 151.512 756.935C153.213 757.671 154.657 758.886 155.681 760.45L169.048 774.691C170.145 775.869 170.858 777.286 171.096 778.795 171.48 781.518 171.206 783.487 170.2 784.646Z" fill="#FFFFFF" fill-rule="evenodd"/><g filter="url(#fx2)" transform="translate(104 741)"><g><path d="M34.0433 15.3201C32.5887 15.7601 19.6431 19.9401 16.1339 30.5184 13.6248 38.0534 16.4067 47.3117 24.425 58.0001 26.9705 61.4101 28.4614 65.4434 28.7523 69.6784 28.825 70.6501 29.6251 71.3834 30.5705 71.3834 30.6069 71.3834 30.6614 71.3834 30.6978 71.3834 31.6978 71.3101 32.4615 70.4301 32.3887 69.4217 32.0615 64.4717 30.2978 59.7601 27.3341 55.7817 20.0976 46.1017 17.4976 37.9984 19.5885 31.6734 22.5704 22.7084 34.5706 18.9867 35.0797 18.8217 36.0433 18.5284 36.5888 17.5017 36.2979 16.5301 36.0252 15.5767 35.007 15.0267 34.0433 15.3201Z" fill="#FFFFFF" fill-rule="evenodd"/></g></g><path d="M134.802 753.079C133.348 753.519 120.402 757.699 116.893 768.278 114.384 775.812 117.166 785.071 125.184 795.759 127.73 799.169 129.22 803.203 129.511 807.438 129.584 808.409 130.384 809.143 131.33 809.143 131.366 809.143 131.421 809.143 131.457 809.143 132.457 809.069 133.221 808.189 133.148 807.181 132.821 802.231 131.057 797.519 128.093 793.541 120.857 783.861 118.257 775.758 120.348 769.432 123.329 760.468 135.33 756.746 135.839 756.581 136.802 756.287 137.348 755.261 137.057 754.289 136.784 753.336 135.766 752.786 134.802 753.079Z" fill="#FFFFFF" fill-rule="evenodd"/><g filter="url(#fx3)" transform="translate(133 787)"><g><path d="M19.9272 27.5611C21.0972 32.1396 20.8632 35.7211 20.4852 37.9182 20.3052 38.9152 20.9534 39.875 21.9252 40.0598 22.0332 40.0782 22.1414 40.0965 22.2494 40.0965 23.0954 40.0965 23.8512 39.4688 24.0132 38.5827 24.4632 36.0167 24.7332 31.8628 23.4012 26.638 22.4652 22.9457 20.8092 19.3826 18.5053 16.0226 17.9293 15.192 16.8133 14.9888 16.0034 15.5796 15.1933 16.1705 14.9954 17.3149 15.5713 18.1459 17.6414 21.1366 19.0994 24.312 19.9272 27.5611Z" fill="#FFFFFF" fill-rule="evenodd"/></g></g><path d="M149.686 811.32C150.856 815.899 150.622 819.48 150.244 821.677 150.064 822.674 150.712 823.634 151.684 823.819 151.792 823.837 151.9 823.856 152.008 823.856 152.854 823.856 153.61 823.228 153.772 822.342 154.222 819.776 154.492 815.622 153.16 810.397 152.224 806.705 150.568 803.142 148.264 799.782 147.688 798.951 146.572 798.748 145.763 799.339 144.952 799.93 144.755 801.074 145.33 801.905 147.4 804.896 148.858 808.071 149.686 811.32Z" fill="#FFFFFF" fill-rule="evenodd"/></g></svg>