<svg width="118" height="166" xmlns="http://www.w3.org/2000/svg" xmlns:xlink="http://www.w3.org/1999/xlink" xml:space="preserve" overflow="hidden"><g transform="translate(-1192 -1388)"><path d="M1299.25 1412.67 1278.78 1412.67 1278.78 1402.52C1278.78 1401.09 1277.61 1399.92 1276.18 1399.92L1262.87 1399.92C1261.67 1394.26 1256.62 1390 1250.6 1390 1244.58 1390 1239.53 1394.26 1238.33 1399.92L1225.02 1399.92C1223.59 1399.92 1222.42 1401.09 1222.42 1402.52L1222.42 1412.67 1201.94 1412.67C1197.57 1412.67 1194 1416.23 1194 1420.59L1194 1543.11C1194 1547.47 1197.57 1551.03 1201.94 1551.03L1299.25 1551.03C1303.63 1551.03 1307.2 1547.47 1307.2 1543.11L1307.2 1420.59C1307.2 1416.23 1303.63 1412.67 1299.25 1412.67ZM1250.6 1395.22C1253.72 1395.22 1256.38 1397.19 1257.45 1399.95L1243.77 1399.95C1244.82 1397.17 1247.47 1395.22 1250.6 1395.22ZM1227.63 1405.14 1273.57 1405.14 1273.57 1422.62 1227.63 1422.62 1227.63 1405.14ZM1301.99 1543.11C1301.99 1544.61 1300.76 1545.83 1299.25 1545.83L1201.94 1545.83C1200.43 1545.83 1199.21 1544.61 1199.21 1543.11L1199.21 1420.59C1199.21 1419.08 1200.43 1417.86 1201.94 1417.86L1222.42 1417.86 1222.42 1425.19C1222.42 1426.61 1223.59 1427.78 1225.02 1427.78L1276.18 1427.78C1277.61 1427.78 1278.78 1426.61 1278.78 1425.19L1278.78 1417.86 1299.25 1417.86C1300.76 1417.86 1301.99 1419.08 1301.99 1420.59L1301.99 1543.11Z" stroke="#D10007" stroke-width="4.32926" stroke-miterlimit="8" fill="#FFFFFF" fill-rule="evenodd"/><path d="M1214 1519 1253.23 1519 1253.23 1525 1214 1525Z" stroke="#D10007" stroke-width="4.32926" stroke-miterlimit="8" fill="#FFFFFF" fill-rule="evenodd"/><path d="M1214 1495 1253.23 1495 1253.23 1500 1214 1500Z" stroke="#D10007" stroke-width="4.32926" stroke-miterlimit="8" fill="#FFFFFF" fill-rule="evenodd"/><path d="M1214 1470 1253.23 1470 1253.23 1475 1214 1475Z" stroke="#D10007" stroke-width="4.32926" stroke-miterlimit="8" fill="#FFFFFF" fill-rule="evenodd"/><path d="M1214 1445 1253.23 1445 1253.23 1450 1214 1450Z" stroke="#D10007" stroke-width="4.32926" stroke-miterlimit="8" fill="#FFFFFF" fill-rule="evenodd"/><path d="M1273.63 1447.21 1267.63 1441.14 1264 1444.77 1273.63 1454.49 1288.43 1439.65 1284.83 1436Z" stroke="#D10007" stroke-width="4.32926" stroke-miterlimit="8" fill="#FFFFFF" fill-rule="evenodd"/><path d="M1273.63 1472.21 1267.63 1466.14 1264 1469.77 1273.63 1479.49 1288.43 1464.65 1284.83 1461Z" stroke="#D10007" stroke-width="4.32926" stroke-miterlimit="8" fill="#FFFFFF" fill-rule="evenodd"/><path d="M1273.63 1522.21 1267.63 1516.14 1264 1519.77 1273.63 1529.49 1288.43 1514.65 1284.83 1511Z" stroke="#D10007" stroke-width="4.32926" stroke-miterlimit="8" fill="#FFFFFF" fill-rule="evenodd"/><path d="M1270.65 1504.49 1276.26 1498.88 1281.86 1504.49 1285.51 1500.86 1279.88 1495.23 1285.51 1489.63 1281.86 1486 1276.26 1491.61 1270.65 1486 1267 1489.63 1272.63 1495.23 1267 1500.86Z" stroke="#D10007" stroke-width="4.32926" stroke-miterlimit="8" fill="#FFFFFF" fill-rule="evenodd"/></g></svg>