<svg width="153" height="160" xmlns="http://www.w3.org/2000/svg" xmlns:xlink="http://www.w3.org/1999/xlink" xml:space="preserve" overflow="hidden"><defs><clipPath id="clip0"><rect x="3915" y="79" width="153" height="160"/></clipPath></defs><g clip-path="url(#clip0)" transform="translate(-3915 -79)"><path d="M4049.28 137.139C4049.28 105.092 4023.21 79.0001 3991.14 79.0001 3959.09 79.0001 3933 105.067 3933 137.139 3933 169.211 3959.07 195.278 3991.14 195.278 4023.21 195.278 4049.28 169.185 4049.28 137.139ZM3991.16 190.167C3961.93 190.167 3938.14 166.374 3938.14 137.139 3938.14 107.903 3961.93 84.1112 3991.16 84.1112 4020.4 84.1112 4044.19 107.903 4044.19 137.139 4044.19 166.374 4020.4 190.167 3991.16 190.167Z" fill="#D10007" fill-rule="evenodd"/><path d="M3991 88C3963.97 88 3942 109.973 3942 137 3942 164.027 3963.97 186 3991 186 4018.03 186 4040 164.027 4040 137 4040 109.973 4018 88 3991 88ZM3991 180.842C3966.84 180.842 3947.16 161.165 3947.16 137 3947.16 112.835 3966.84 93.1579 3991 93.1579 4015.17 93.1579 4034.84 112.835 4034.84 137 4034.84 161.165 4015.17 180.842 3991 180.842Z" fill="#D10007" fill-rule="evenodd"/><path d="M4009.79 143.59C4008.43 143.204 4007.01 144.027 4006.62 145.39 4002.34 161.204 3990.84 159.919 3990.35 159.867 3990.22 159.841 3990.12 159.841 3989.99 159.841 3989.94 159.841 3989.91 159.841 3989.88 159.841 3985.27 159.841 3981.63 158.427 3978.82 155.547 3976.45 153.104 3974.95 149.915 3974.05 146.83L3999.12 146.83C4000.54 146.83 4001.7 145.673 4001.7 144.259 4001.7 142.844 4000.54 141.687 3999.12 141.687L3972.94 141.687C3972.5 138.524 3972.55 136.184 3972.55 136.107 3972.55 136.056 3972.55 135.979 3972.55 135.927L3999.12 135.927C4000.54 135.927 4001.7 134.77 4001.7 133.355 4001.7 131.941 4000.54 130.784 3999.12 130.784L3972.97 130.784C3973.74 125.899 3975.6 121.99 3978.51 119.187 3983.75 114.096 3990.79 114.121 3990.89 114.147 4004.17 114.276 4006.49 125.204 4006.6 125.693 4006.85 127.081 4008.19 128.007 4009.61 127.724 4011.01 127.467 4011.93 126.13 4011.68 124.716 4010.67 119.341 4005.05 109.133 3990.99 109.004 3990.63 108.979 3981.79 108.876 3974.98 115.459 3971.06 119.239 3968.66 124.407 3967.78 130.81L3963.58 130.81C3962.16 130.81 3961 131.967 3961 133.381 3961 134.796 3962.16 135.953 3963.58 135.953L3967.37 135.953C3967.37 135.979 3967.37 136.004 3967.37 136.03 3967.37 136.261 3967.32 138.55 3967.71 141.713L3963.58 141.713C3962.16 141.713 3961 142.87 3961 144.284 3961 145.699 3962.16 146.855 3963.58 146.855L3968.69 146.855C3969.74 151.021 3971.65 155.599 3975.11 159.147 3978.9 163.056 3983.88 165.01 3989.88 165.036 3990.12 165.061 3990.5 165.087 3991.02 165.087 3995.09 165.087 4007.06 163.596 4011.6 146.804 4011.99 145.364 4011.19 143.95 4009.79 143.59Z" fill="#D10007" fill-rule="evenodd"/><path d="M3976.3 205.651C3969.69 200.763 3961.05 197.117 3954.75 194.427 3951.95 193.237 3949.53 192.203 3948.11 191.427 3945.13 189.772 3942.28 189.953 3940.14 191.143 3937.03 185.272 3929.63 171.281 3927.62 167.065 3925.64 162.927 3922.09 162.487 3919.67 163.393 3916.38 164.608 3914.38 168.203 3915.17 171.358 3915.61 173.194 3918.03 179.634 3921.96 190.005 3924.33 196.263 3926.8 202.755 3927.93 206.039 3930.68 214.031 3932.92 218.22 3938.29 220.367L3939.35 220.78C3960.64 229.16 3965.16 234.332 3965.99 236.686 3966.35 237.72 3967.32 238.418 3968.4 238.418L3984.89 238.418C3986.3 238.418 3987.46 237.255 3987.46 235.832 3987.48 215.065 3976.84 206.117 3976.3 205.651ZM3970.02 233.22C3965.86 226.289 3951.79 220.108 3941.22 215.944L3940.19 215.531C3936.95 214.237 3935.36 211.832 3932.79 204.332 3931.63 200.996 3929.16 194.453 3926.77 188.143 3923.87 180.462 3920.57 171.746 3920.16 170.065 3920.01 169.445 3920.65 168.513 3921.45 168.229 3921.73 168.125 3922.32 167.919 3922.99 169.289 3925.36 174.229 3934.64 191.737 3936.62 195.487 3935.69 198.539 3936.59 202.315 3940.4 204.772 3946.73 208.884 3956.75 213.668 3957.19 213.875 3958.48 214.496 3960.02 213.927 3960.61 212.634 3961.2 211.341 3960.66 209.789 3959.38 209.194 3959.27 209.143 3949.22 204.358 3943.18 200.427 3941.17 199.108 3941.17 197.479 3941.76 196.445 3942.33 195.487 3943.64 194.841 3945.59 195.927 3947.24 196.832 3949.66 197.867 3952.72 199.16 3958.79 201.72 3967.12 205.263 3973.11 209.686 3973.47 209.996 3981.47 216.901 3982.26 233.168L3970.02 233.168Z" fill="#D10007" fill-rule="evenodd"/><path d="M4062.76 163.377C4060.37 162.498 4056.82 162.937 4054.86 167.075 4052.86 171.291 4045.45 185.282 4042.34 191.153 4040.21 189.963 4037.35 189.782 4034.37 191.437 4032.98 192.213 4030.56 193.248 4027.73 194.437 4021.43 197.101 4012.79 200.773 4006.08 205.739 4005.62 206.101 3995 215.075 3995 235.816 3995 237.239 3996.16 238.403 3997.57 238.403L4014.05 238.403C4015.13 238.403 4016.11 237.704 4016.47 236.67 4018.4 231.161 4034.47 222.963 4044.17 219.084 4049.44 216.963 4051.75 214.041 4054.53 206.049 4055.66 202.791 4058.1 196.325 4060.47 190.067 4064.4 179.644 4066.82 173.204 4067.28 171.394 4068.08 168.187 4066.07 164.592 4062.76 163.377ZM4055.66 188.23C4053.29 194.515 4050.83 201.032 4049.67 204.342 4047.12 211.687 4045.53 212.954 4042.26 214.273 4037.99 215.98 4017.63 224.515 4012.43 233.23L4000.19 233.23C4000.97 216.963 4008.99 210.058 4009.22 209.825 4015.34 205.299 4023.65 201.782 4029.74 199.196 4032.8 197.903 4035.22 196.868 4036.86 195.963 4038.82 194.877 4040.13 195.523 4040.69 196.48 4041.31 197.489 4041.31 199.144 4039.28 200.463 4033.24 204.394 4023.18 209.179 4023.08 209.23 4021.79 209.851 4021.25 211.377 4021.85 212.67 4022.46 213.963 4023.98 214.506 4025.27 213.911 4025.68 213.704 4035.73 208.92 4042.06 204.808 4045.84 202.351 4046.76 198.575 4045.84 195.523 4047.84 191.773 4057.1 174.291 4059.49 169.325 4060.16 167.929 4060.73 168.135 4061.01 168.239 4061.81 168.523 4062.45 169.48 4062.29 170.127 4061.88 171.782 4058.57 180.523 4055.66 188.23Z" fill="#D10007" fill-rule="evenodd"/></g></svg>