<svg width="90" height="80" xmlns="http://www.w3.org/2000/svg" xmlns:xlink="http://www.w3.org/1999/xlink" xml:space="preserve" overflow="hidden"><g transform="translate(-2780 -187)"><path d="M2866.08 208.5C2783.92 208.5 2783.92 208.5 2783.92 208.5 2782.71 208.5 2781.5 207.667 2781.5 206 2781.5 191 2781.5 191 2781.5 191 2781.5 189.75 2782.71 188.5 2783.92 188.5 2866.08 188.5 2866.08 188.5 2866.08 188.5 2867.69 188.5 2868.5 189.75 2868.5 191 2868.5 206 2868.5 206 2868.5 206 2868.5 207.667 2867.69 208.5 2866.08 208.5ZM2786.33 203.5C2863.67 203.5 2863.67 203.5 2863.67 203.5 2863.67 193.5 2863.67 193.5 2863.67 193.5 2786.33 193.5 2786.33 193.5 2786.33 193.5L2786.33 203.5Z" stroke="#D10007" stroke-width="3.4375" stroke-linejoin="round" stroke-miterlimit="10" fill="#FFFFFF" fill-rule="evenodd"/><path d="M2866.08 237.5C2783.92 237.5 2783.92 237.5 2783.92 237.5 2782.71 237.5 2781.5 236.667 2781.5 235 2781.5 220 2781.5 220 2781.5 220 2781.5 218.75 2782.71 217.5 2783.92 217.5 2866.08 217.5 2866.08 217.5 2866.08 217.5 2867.69 217.5 2868.5 218.75 2868.5 220 2868.5 235 2868.5 235 2868.5 235 2868.5 236.667 2867.69 237.5 2866.08 237.5ZM2786.33 232.5C2863.67 232.5 2863.67 232.5 2863.67 232.5 2863.67 222.5 2863.67 222.5 2863.67 222.5 2786.33 222.5 2786.33 222.5 2786.33 222.5L2786.33 232.5Z" stroke="#D10007" stroke-width="3.4375" stroke-linejoin="round" stroke-miterlimit="10" fill="#FFFFFF" fill-rule="evenodd"/><path d="M2866.08 265.5C2783.92 265.5 2783.92 265.5 2783.92 265.5 2782.71 265.5 2781.5 264.708 2781.5 263.125 2781.5 248.875 2781.5 248.875 2781.5 248.875 2781.5 247.687 2782.71 246.5 2783.92 246.5 2866.08 246.5 2866.08 246.5 2866.08 246.5 2867.69 246.5 2868.5 247.687 2868.5 248.875 2868.5 263.125 2868.5 263.125 2868.5 263.125 2868.5 264.708 2867.69 265.5 2866.08 265.5ZM2786.33 260.75C2863.67 260.75 2863.67 260.75 2863.67 260.75 2863.67 251.25 2863.67 251.25 2863.67 251.25 2786.33 251.25 2786.33 251.25 2786.33 251.25L2786.33 260.75Z" stroke="#D10007" stroke-width="3.4375" stroke-linejoin="round" stroke-miterlimit="10" fill="#FFFFFF" fill-rule="evenodd"/></g></svg>