<svg width="21" height="21" xmlns="http://www.w3.org/2000/svg" xmlns:xlink="http://www.w3.org/1999/xlink" xml:space="preserve" overflow="hidden"><g transform="translate(-28 -531)"><path d="M8.7675 19.4145C8.1375 19.047 8.0325 18.4905 8.505 17.955 8.673 17.7555 8.8095 17.556 8.82 17.5245 8.82 17.409 8.085 17.157 7.035 16.9155 6.489 16.7895 5.313 16.4535 4.431 16.17L2.835 15.645 1.932 15.876C0.9135 16.128 0.5775 16.0755 0.3255 15.624 0.189 15.393 0.189 15.267 0.2835 14.889 0.399 14.49 0.3885 14.3535 0.189 13.797-0.1365 12.8835-0.0105 12.5055 0.8925 11.7075 1.869 10.857 1.827 10.626 0.5985 9.723 0.3885 9.5655 0.21 9.387 0.21 9.3345 0.21 9.2715 0.3465 9.03 0.5145 8.7885 0.6825 8.547 0.966 7.9905 1.1445 7.56 1.68 6.2475 2.3835 5.586 3.087 5.712 3.612 5.8065 4.284 6.3735 4.641 6.993 4.809 7.308 4.998 7.56 5.061 7.56 5.4495 7.56 5.8065 7.0245 6.2895 5.7015 6.426 5.3445 6.6045 5.0295 6.6885 4.9875 6.951 4.893 7.2765 5.1765 7.665 5.859 8.106 6.636 8.2635 6.6675 8.988 6.1425 10.122 5.3235 10.311 5.25 10.7625 5.418 11.025 5.523 11.256 6.069 11.214 6.5415L11.1825 6.9825 11.6235 7.056C12.495 7.203 12.81 7.581 12.81 8.505L12.81 9.03 13.0725 8.862C13.5555 8.547 14.07 8.988 14.07 9.7125 14.07 9.87 14.3115 10.1955 14.805 10.689 15.4455 11.3295 15.54 11.4765 15.54 11.802 15.54 12.012 15.4665 12.306 15.3615 12.453 15.2145 12.684 15.2145 12.7365 15.3405 12.852 15.4245 12.936 15.645 13.02 15.8235 13.0515 16.212 13.125 16.38 12.936 16.38 12.411 16.38 12.0015 16.7685 11.655 17.2305 11.655 17.6925 11.655 17.9865 11.865 18.3225 12.432 18.522 12.768 18.7635 12.978 19.341 13.293 21.042 14.217 21.4515 15.162 20.4225 15.771 20.034 15.9915 17.283 16.506 16.7265 16.464 16.359 16.4325 16.3275 16.4115 16.3275 16.1175 16.3275 15.813 16.3485 15.8025 17.0625 15.666 19.131 15.2985 20.0025 15.1095 20.097 15.015 20.244 14.868 19.971 14.6055 19.2465 14.1855 18.039 13.4715 17.85 13.3245 17.64 12.915 17.3565 12.3585 17.115 12.3585 17.115 12.915 17.115 13.545 16.7685 13.86 16.0755 13.86 15.351 13.86 14.7525 13.5975 14.49 13.1775 14.2275 12.747 14.2275 12.5895 14.49 12.2535 14.6055 12.1065 14.7 11.9175 14.7 11.8335 14.7 11.739 14.406 11.403 14.049 11.0775 13.6815 10.752 13.335 10.3845 13.272 10.269 13.1985 10.122 13.125 10.0905 13.083 10.1745 12.957 10.374 12.495 10.3005 12.2325 10.0275 11.991 9.7965 11.97 9.6915 11.97 8.883 11.97 7.9905 11.97 7.98 11.6865 7.917 10.731 7.707 10.479 7.602 10.311 7.329 10.164 7.077 10.164 6.993 10.2795 6.6675 10.353 6.4575 10.3845 6.258 10.353 6.2265 10.332 6.195 10.101 6.3315 9.849 6.5415 8.946 7.266 8.064 7.539 7.6335 7.2135 7.5285 7.1505 7.3395 6.8985 7.203 6.678L6.9615 6.2685 6.8355 6.636C6.51 7.6335 5.7435 8.4 5.0715 8.4 4.515 8.4 4.2735 8.2215 3.9375 7.5285 3.696 7.0245 3.528 6.825 3.2235 6.6675L2.814 6.4575 2.4675 6.8565C2.2785 7.077 1.995 7.5915 1.848 8.001 1.6905 8.4 1.5015 8.8305 1.4175 8.9565 1.281 9.156 1.302 9.198 1.7325 9.576 2.2575 10.038 2.478 10.5945 2.373 11.151 2.289 11.5605 2.121 11.7705 1.449 12.3165 1.176 12.5475 0.924 12.8205 0.882 12.936 0.8505 13.0515 0.924 13.419 1.0605 13.7655 1.26 14.301 1.2705 14.4585 1.176 14.784 1.113 14.994 1.071 15.183 1.092 15.204 1.113 15.225 1.4175 15.162 1.764 15.078 2.73 14.826 3.108 14.868 4.851 15.4245 5.733 15.708 6.8775 16.044 7.3815 16.1595 9.135 16.569 9.7545 16.989 9.618 17.6715 9.576 17.85 9.429 18.1335 9.2715 18.291 9.114 18.4485 9.0195 18.6165 9.0615 18.648 9.1665 18.753 10.017 18.4065 10.584 18.0285 10.983 17.7555 11.088 17.619 11.1405 17.2935 11.172 17.073 11.298 16.7685 11.4135 16.611 11.6025 16.3485 11.6865 16.3275 12.348 16.3275 13.0305 16.3275 13.0725 16.338 13.104 16.5795 13.1565 16.905 13.0095 17.0415 12.474 17.1045 12.054 17.1675 12.0225 17.1885 11.9175 17.6295 11.781 18.186 11.2665 18.669 10.311 19.1205 9.5445 19.488 9.0615 19.5825 8.7675 19.4145Z" fill="#C96984" transform="matrix(1 0 0 -1 28 552)"/><path d="M5.3865 18.8475C4.0635 18.48 3.36 17.871 3.5175 17.2305 3.654 16.695 3.9375 16.548 4.242 16.863 4.347 16.968 4.389 17.115 4.347 17.2725 4.2735 17.577 4.5675 17.745 5.628 18.039 6.3945 18.249 6.636 18.459 6.447 18.774 6.3 19.005 6.048 19.026 5.3865 18.8475Z" fill="#C96984" transform="matrix(1 0 0 -1 28 552)"/><path d="M14.427 16.548C14.301 16.2225 14.427 16.0125 14.742 16.0125 15.12 16.0125 15.33 16.2855 15.1305 16.527 14.952 16.737 14.5005 16.7475 14.427 16.548Z" fill="#C96984" transform="matrix(1 0 0 -1 28 552)"/><path d="M15.6765 10.017C15.6135 9.9855 15.3615 9.6705 15.1305 9.3135 14.8995 8.9565 14.5425 8.547 14.3325 8.4105 13.923 8.127 13.839 7.7385 14.1645 7.5705 14.574 7.35 15.54 8.2425 16.1595 9.4185 16.3065 9.7125 16.3065 9.723 16.107 9.912 15.939 10.0905 15.8865 10.101 15.6765 10.017Z" fill="#C96984" transform="matrix(1 0 0 -1 28 552)"/><path d="M13.566 5.649C13.3665 5.4495 13.419 5.166 13.671 5.0295 13.86 4.9245 13.923 4.9455 14.091 5.145 14.4165 5.544 13.9335 6.0165 13.566 5.649Z" fill="#C96984" transform="matrix(1 0 0 -1 28 552)"/><path d="M11.844 5.2605C11.655 5.103 11.34 4.8825 11.1615 4.788 10.8885 4.6515 10.815 4.5465 10.815 4.2945 10.815 3.2445 11.8545 2.7825 12.642 3.4755 13.0725 3.8535 13.1985 4.326 13.02 4.872 12.7785 5.628 12.4005 5.754 11.844 5.2605ZM12.18 4.1475C12.1065 4.0635 11.949 3.99 11.823 3.99 11.6235 4.0005 11.634 4.0215 11.9175 4.2525 12.2325 4.515 12.4215 4.431 12.18 4.1475Z" fill="#C96984" transform="matrix(1 0 0 -1 28 552)"/><path d="M8.7885 4.2315C8.463 3.9165 9.555 2.562 10.584 2.016 11.3085 1.6275 11.6025 1.596 11.76 1.8795 11.928 2.1945 11.802 2.3415 11.13 2.6565 10.689 2.856 10.3425 3.1395 9.912 3.6225 9.345 4.263 8.9985 4.452 8.7885 4.2315Z" fill="#C96984" transform="matrix(1 0 0 -1 28 552)"/><path d="M14.07 4.0425C13.86 3.7905 13.9965 3.528 14.511 3.2025 14.826 3.003 15.0675 2.7405 15.183 2.499 15.498 1.806 16.149 2.058 15.939 2.7825 15.8235 3.2025 15.561 3.4965 14.9625 3.8745 14.385 4.242 14.259 4.263 14.07 4.0425Z" fill="#C96984" transform="matrix(1 0 0 -1 28 552)"/><path d="M12.8625 2.142C12.663 1.932 12.6945 1.6905 12.9465 1.533 13.3035 1.302 13.713 1.8165 13.44 2.1525 13.272 2.352 13.0725 2.352 12.8625 2.142Z" fill="#C96984" transform="matrix(1 0 0 -1 28 552)"/></g></svg>