<svg width="92" height="92" xmlns="http://www.w3.org/2000/svg" xmlns:xlink="http://www.w3.org/1999/xlink" xml:space="preserve" overflow="hidden"><defs><filter id="fx0" x="-10%" y="-10%" width="120%" height="120%" filterUnits="userSpaceOnUse" primitiveUnits="userSpaceOnUse"><feComponentTransfer color-interpolation-filters="sRGB"><feFuncR type="discrete" tableValues="0 0"/><feFuncG type="discrete" tableValues="0 0"/><feFuncB type="discrete" tableValues="0 0"/><feFuncA type="linear" slope="0.188235" intercept="0"/></feComponentTransfer><feGaussianBlur stdDeviation="4.58333 4.58333"/></filter><filter id="fx1" x="-10%" y="-10%" width="120%" height="120%" filterUnits="userSpaceOnUse" primitiveUnits="userSpaceOnUse"><feComponentTransfer color-interpolation-filters="sRGB"><feFuncR type="discrete" tableValues="0 0"/><feFuncG type="discrete" tableValues="0 0"/><feFuncB type="discrete" tableValues="0 0"/><feFuncA type="linear" slope="0.188235" intercept="0"/></feComponentTransfer><feGaussianBlur stdDeviation="4.58333 4.58333"/></filter><clipPath id="clip2"><rect x="102" y="1219" width="92" height="92"/></clipPath></defs><g clip-path="url(#clip2)" transform="translate(-102 -1219)"><g filter="url(#fx0)" transform="translate(126 1243)"><g><path d="M28.4909 15.241 15.9908 15.241C15.5758 15.241 15.2408 15.576 15.2408 15.991L15.2408 28.4911C15.2408 28.9061 15.5758 29.2411 15.9908 29.2411L28.4909 29.2411C28.9058 29.2411 29.2409 28.9061 29.2409 28.4911L29.2409 15.991C29.2409 15.576 28.9058 15.241 28.4909 15.241ZM27.7409 27.7411 16.7408 27.7411 16.7408 16.741 27.7409 16.741 27.7409 27.7411Z" fill="#C96984" fill-rule="evenodd"/></g></g><path d="M151.25 1255 138.75 1255C138.335 1255 138 1255.33 138 1255.75L138 1268.25C138 1268.67 138.335 1269 138.75 1269L151.25 1269C151.665 1269 152 1268.67 152 1268.25L152 1255.75C152 1255.33 151.665 1255 151.25 1255ZM150.5 1267.5 139.5 1267.5 139.5 1256.5 150.5 1256.5 150.5 1267.5Z" fill="#C96984" fill-rule="evenodd"/><g filter="url(#fx1)" transform="translate(101 1218)"><g><path d="M75.8589 43.8587C74.2615 43.8587 72.9242 44.9722 72.5704 46.4603L70.6972 46.4603C70.4267 45.9972 69.9272 45.6798 69.3548 45.6798 68.7824 45.6798 68.2829 45.9972 68.0124 46.4603L63.6312 46.4603 63.6312 35.0132 68.0124 35.0132C68.2829 35.4763 68.7824 35.7937 69.3548 35.7937 70.2133 35.7937 70.9158 35.0912 70.9158 34.2327 70.9158 33.6551 70.5984 33.1608 70.1353 32.8903L70.1353 26.4747C70.5984 26.2041 70.9158 25.7046 70.9158 25.1322 70.9158 24.2737 70.2133 23.5712 69.3548 23.5712 68.4963 23.5712 67.7938 24.2737 67.7938 25.1322 67.7938 25.7098 68.1112 26.2041 68.5743 26.4747L68.5743 32.8903C68.3402 33.0255 68.1476 33.2181 68.0124 33.4522L63.6312 33.4522 63.6312 31.6311C63.6312 31.1992 63.2826 30.8506 62.8507 30.8506L61.0296 30.8506 61.0296 26.4695C61.4927 26.1989 61.8101 25.6994 61.8101 25.127 61.8101 24.5547 61.4927 24.0551 61.0296 23.7846L61.0296 20.262C61.6436 19.9706 62.0703 19.3462 62.0703 18.623 62.0703 17.6187 61.2533 16.8018 60.2491 16.8018 59.5259 16.8018 58.9067 17.2285 58.6101 17.8425L50.5295 17.8425C50.1756 16.3543 48.8384 15.2408 47.241 15.2408 45.3782 15.2408 43.8589 16.7602 43.8589 18.623 43.8589 20.4857 45.3782 22.0051 47.241 22.0051 48.8384 22.0051 50.1756 20.8916 50.5295 19.4034L58.6101 19.4034C58.7922 19.7781 59.094 20.0799 59.4686 20.262L59.4686 23.7846C59.0055 24.0551 58.6881 24.5547 58.6881 25.127 58.6881 25.6994 59.0055 26.1989 59.4686 26.4695L59.4686 30.8506 48.0215 30.8506 48.0215 26.4695C48.4845 26.1989 48.802 25.6994 48.802 25.127 48.802 24.2685 48.0995 23.566 47.241 23.566 46.3825 23.566 45.68 24.2685 45.68 25.127 45.68 25.7046 45.9974 26.1989 46.4605 26.4695L46.4605 30.8506 35.0134 30.8506 35.0134 26.4695C35.4764 26.1989 35.7939 25.6994 35.7939 25.127 35.7939 24.2685 35.0914 23.566 34.2329 23.566 33.3744 23.566 32.6719 24.2685 32.6719 25.127 32.6719 25.7046 32.9893 26.1989 33.4524 26.4695L33.4524 30.8506 31.6313 30.8506C31.1994 30.8506 30.8508 31.1992 30.8508 31.6311L30.8508 33.4522 26.4696 33.4522C26.1991 32.9891 25.6996 32.6717 25.1272 32.6717 24.5548 32.6717 24.0553 32.9891 23.7848 33.4522L19.9708 33.4522C19.8355 33.2181 19.643 33.0255 19.4088 32.8903L19.4088 28.4155C20.897 28.0616 22.0105 26.7244 22.0105 25.127 22.0105 23.2643 20.4911 21.7449 18.6283 21.7449 16.7656 21.7449 15.2462 23.2643 15.2462 25.127 15.2462 26.7244 16.3597 28.0616 17.8479 28.4155L17.8479 32.8903C17.3848 33.1608 17.0674 33.6603 17.0674 34.2327 17.0674 35.0912 17.7698 35.7937 18.6283 35.7937 19.2059 35.7937 19.7002 35.4763 19.9708 35.0132L23.7848 35.0132C24.0553 35.4763 24.5548 35.7937 25.1272 35.7937 25.6996 35.7937 26.1991 35.4763 26.4696 35.0132L30.8508 35.0132 30.8508 46.4603 26.4696 46.4603C26.1991 45.9972 25.6996 45.6798 25.1272 45.6798 24.2687 45.6798 23.5662 46.3823 23.5662 47.2408 23.5662 48.0993 24.2687 48.8018 25.1272 48.8018 25.7048 48.8018 26.1991 48.4844 26.4696 48.0213L30.8508 48.0213 30.8508 59.4684 26.4696 59.4684C26.1991 59.0054 25.6996 58.688 25.1272 58.688 24.5548 58.688 24.0553 59.0054 23.7848 59.4684L21.9116 59.4684C21.5577 57.9803 20.2205 56.8668 18.6231 56.8668 16.7604 56.8668 15.241 58.3862 15.241 60.2489 15.241 62.1117 16.7604 63.631 18.6231 63.631 20.2205 63.631 21.5577 62.5175 21.9116 61.0294L23.7848 61.0294C24.0553 61.4925 24.5548 61.8099 25.1272 61.8099 25.6996 61.8099 26.1991 61.4925 26.4696 61.0294L30.8508 61.0294 30.8508 62.8506C30.8508 63.2824 31.1994 63.631 31.6313 63.631L33.4524 63.631 33.4524 68.0122C33.2183 68.1475 33.0257 68.34 32.8904 68.5741L26.4748 68.5741C26.2043 68.111 25.7048 67.7936 25.1324 67.7936 24.2739 67.7936 23.5714 68.4961 23.5714 69.3546 23.5714 70.2132 24.2739 70.9156 25.1324 70.9156 25.71 70.9156 26.2043 70.5982 26.4748 70.1351L32.8904 70.1351C33.161 70.5982 33.6605 70.9156 34.2329 70.9156 35.0914 70.9156 35.7939 70.2132 35.7939 69.3546 35.7939 68.777 35.4764 68.2827 35.0134 68.0122L35.0134 63.631 46.4605 63.631 46.4605 68.0122C45.9974 68.2827 45.68 68.7823 45.68 69.3546 45.68 69.927 45.9974 70.4265 46.4605 70.6971L46.4605 72.5702C44.9723 72.924 43.8589 74.2613 43.8589 75.8587 43.8589 77.7214 45.3782 79.2408 47.241 79.2408 49.1038 79.2408 50.6231 77.7214 50.6231 75.8587 50.6231 74.2613 49.5096 72.924 48.0215 72.5702L48.0215 70.6971C48.4845 70.4265 48.802 69.927 48.802 69.3546 48.802 68.7823 48.4845 68.2827 48.0215 68.0122L48.0215 63.631 59.4686 63.631 59.4686 68.0122C59.0055 68.2827 58.6881 68.7823 58.6881 69.3546 58.6881 70.2132 59.3906 70.9156 60.2491 70.9156 60.8267 70.9156 61.321 70.5982 61.5916 70.1351L68.0072 70.1351C68.2777 70.5982 68.7772 70.9156 69.3496 70.9156 70.2081 70.9156 70.9106 70.2132 70.9106 69.3546 70.9106 68.4961 70.2081 67.7936 69.3496 67.7936 68.772 67.7936 68.2777 68.111 68.0072 68.5741L61.5916 68.5741C61.4563 68.34 61.2638 68.1475 61.0296 68.0122L61.0296 63.631 62.8507 63.631C63.2826 63.631 63.6312 63.2824 63.6312 62.8506L63.6312 61.0294 68.0124 61.0294C68.2829 61.4925 68.7824 61.8099 69.3548 61.8099 70.2133 61.8099 70.9158 61.1075 70.9158 60.2489 70.9158 59.3904 70.2133 58.688 69.3548 58.688 68.7772 58.688 68.2829 59.0054 68.0124 59.4684L63.6312 59.4684 63.6312 48.0213 68.0124 48.0213C68.2829 48.4844 68.7824 48.8018 69.3548 48.8018 69.9272 48.8018 70.4267 48.4844 70.6972 48.0213L72.5704 48.0213C72.9242 49.5094 74.2615 50.6229 75.8589 50.6229 77.7216 50.6229 79.241 49.1036 79.241 47.2408 79.241 45.378 77.7268 43.8587 75.8589 43.8587ZM47.241 20.4441C46.2368 20.4441 45.4199 19.6272 45.4199 18.623 45.4199 17.6187 46.2368 16.8018 47.241 16.8018 48.2452 16.8018 49.0621 17.6187 49.0621 18.623 49.0621 19.6272 48.2452 20.4441 47.241 20.4441ZM16.802 25.127C16.802 24.1228 17.6189 23.3059 18.6231 23.3059 19.6274 23.3059 20.4443 24.1228 20.4443 25.127 20.4443 26.1312 19.6274 26.9482 18.6231 26.9482 17.6189 26.9482 16.802 26.1312 16.802 25.127ZM18.6231 62.0701C17.6189 62.0701 16.802 61.2532 16.802 60.2489 16.802 59.2447 17.6189 58.4278 18.6231 58.4278 19.6014 58.4278 20.3923 59.2031 20.4339 60.1709 20.4287 60.1969 20.4235 60.2229 20.4235 60.2489 20.4235 60.2749 20.4287 60.301 20.4339 60.327 20.3975 61.2948 19.6014 62.0701 18.6231 62.0701ZM49.0621 75.8587C49.0621 76.8629 48.2452 77.6798 47.241 77.6798 46.2368 77.6798 45.4199 76.8629 45.4199 75.8587 45.4199 74.8544 46.2368 74.0375 47.241 74.0375 48.2452 74.0375 49.0621 74.8544 49.0621 75.8587ZM32.4118 62.0701 32.4118 32.4116 62.0703 32.4116 62.0703 34.2327C62.0703 34.2327 62.0703 34.2327 62.0703 34.2327 62.0703 34.2327 62.0703 34.2327 62.0703 34.2327L62.0703 47.2356C62.0703 47.2356 62.0703 47.2356 62.0703 47.2356 62.0703 47.2356 62.0703 47.2356 62.0703 47.2356L62.0703 60.2385C62.0703 60.2385 62.0703 60.2385 62.0703 60.2385 62.0703 60.2385 62.0703 60.2385 62.0703 60.2385L62.0703 62.0597 32.4118 62.0597ZM75.8589 49.0619C74.8546 49.0619 74.0377 48.245 74.0377 47.2408 74.0377 46.2366 74.8546 45.4197 75.8589 45.4197 76.8631 45.4197 77.68 46.2366 77.68 47.2408 77.68 48.245 76.8631 49.0619 75.8589 49.0619Z" fill="#C96984" fill-rule="evenodd"/></g></g><path d="M173.618 1258.62C172.021 1258.62 170.683 1259.73 170.329 1261.22L168.456 1261.22C168.186 1260.76 167.686 1260.44 167.114 1260.44 166.542 1260.44 166.042 1260.76 165.771 1261.22L161.39 1261.22 161.39 1249.77 165.771 1249.77C166.042 1250.24 166.542 1250.55 167.114 1250.55 167.972 1250.55 168.675 1249.85 168.675 1248.99 168.675 1248.41 168.357 1247.92 167.894 1247.65L167.894 1241.23C168.357 1240.96 168.675 1240.46 168.675 1239.89 168.675 1239.03 167.972 1238.33 167.114 1238.33 166.255 1238.33 165.553 1239.03 165.553 1239.89 165.553 1240.47 165.87 1240.96 166.333 1241.23L166.333 1247.65C166.099 1247.78 165.907 1247.98 165.771 1248.21L161.39 1248.21 161.39 1246.39C161.39 1245.96 161.042 1245.61 160.61 1245.61L158.789 1245.61 158.789 1241.23C159.252 1240.96 159.569 1240.46 159.569 1239.89 159.569 1239.31 159.252 1238.81 158.789 1238.54L158.789 1235.02C159.403 1234.73 159.829 1234.11 159.829 1233.38 159.829 1232.38 159.012 1231.56 158.008 1231.56 157.285 1231.56 156.666 1231.99 156.369 1232.6L148.289 1232.6C147.935 1231.11 146.597 1230 145 1230 143.137 1230 141.618 1231.52 141.618 1233.38 141.618 1235.24 143.137 1236.76 145 1236.76 146.597 1236.76 147.935 1235.65 148.289 1234.16L156.369 1234.16C156.551 1234.54 156.853 1234.84 157.228 1235.02L157.228 1238.54C156.765 1238.81 156.447 1239.31 156.447 1239.89 156.447 1240.46 156.765 1240.96 157.228 1241.23L157.228 1245.61 145.781 1245.61 145.781 1241.23C146.244 1240.96 146.561 1240.46 146.561 1239.89 146.561 1239.03 145.859 1238.33 145 1238.33 144.142 1238.33 143.439 1239.03 143.439 1239.89 143.439 1240.46 143.756 1240.96 144.22 1241.23L144.22 1245.61 132.772 1245.61 132.772 1241.23C133.235 1240.96 133.553 1240.46 133.553 1239.89 133.553 1239.03 132.85 1238.33 131.992 1238.33 131.133 1238.33 130.431 1239.03 130.431 1239.89 130.431 1240.46 130.748 1240.96 131.211 1241.23L131.211 1245.61 129.39 1245.61C128.958 1245.61 128.61 1245.96 128.61 1246.39L128.61 1248.21 124.229 1248.21C123.958 1247.75 123.459 1247.43 122.886 1247.43 122.314 1247.43 121.814 1247.75 121.544 1248.21L117.73 1248.21C117.595 1247.98 117.402 1247.78 117.168 1247.65L117.168 1243.17C118.656 1242.82 119.77 1241.48 119.77 1239.89 119.77 1238.02 118.25 1236.5 116.387 1236.5 114.525 1236.5 113.005 1238.02 113.005 1239.89 113.005 1241.48 114.119 1242.82 115.607 1243.17L115.607 1247.65C115.144 1247.92 114.826 1248.42 114.826 1248.99 114.826 1249.85 115.529 1250.55 116.387 1250.55 116.965 1250.55 117.459 1250.24 117.73 1249.77L121.544 1249.77C121.814 1250.24 122.314 1250.55 122.886 1250.55 123.459 1250.55 123.958 1250.24 124.229 1249.77L128.61 1249.77 128.61 1261.22 124.229 1261.22C123.958 1260.76 123.459 1260.44 122.886 1260.44 122.028 1260.44 121.325 1261.14 121.325 1262 121.325 1262.86 122.028 1263.56 122.886 1263.56 123.464 1263.56 123.958 1263.24 124.229 1262.78L128.61 1262.78 128.61 1274.23 124.229 1274.23C123.958 1273.76 123.459 1273.45 122.886 1273.45 122.314 1273.45 121.814 1273.76 121.544 1274.23L119.671 1274.23C119.317 1272.74 117.98 1271.63 116.382 1271.63 114.519 1271.63 113 1273.15 113 1275.01 113 1276.87 114.519 1278.39 116.382 1278.39 117.98 1278.39 119.317 1277.28 119.671 1275.79L121.544 1275.79C121.814 1276.25 122.314 1276.57 122.886 1276.57 123.459 1276.57 123.958 1276.25 124.229 1275.79L128.61 1275.79 128.61 1277.61C128.61 1278.04 128.958 1278.39 129.39 1278.39L131.211 1278.39 131.211 1282.77C130.977 1282.91 130.785 1283.1 130.65 1283.33L124.234 1283.33C123.963 1282.87 123.464 1282.55 122.891 1282.55 122.033 1282.55 121.33 1283.26 121.33 1284.11 121.33 1284.97 122.033 1285.67 122.891 1285.67 123.469 1285.67 123.963 1285.36 124.234 1284.89L130.65 1284.89C130.92 1285.36 131.42 1285.67 131.992 1285.67 132.85 1285.67 133.553 1284.97 133.553 1284.11 133.553 1283.54 133.235 1283.04 132.772 1282.77L132.772 1278.39 144.22 1278.39 144.22 1282.77C143.756 1283.04 143.439 1283.54 143.439 1284.11 143.439 1284.69 143.756 1285.19 144.22 1285.46L144.22 1287.33C142.731 1287.68 141.618 1289.02 141.618 1290.62 141.618 1292.48 143.137 1294 145 1294 146.863 1294 148.382 1292.48 148.382 1290.62 148.382 1289.02 147.269 1287.68 145.781 1287.33L145.781 1285.46C146.244 1285.19 146.561 1284.69 146.561 1284.11 146.561 1283.54 146.244 1283.04 145.781 1282.77L145.781 1278.39 157.228 1278.39 157.228 1282.77C156.765 1283.04 156.447 1283.54 156.447 1284.11 156.447 1284.97 157.15 1285.67 158.008 1285.67 158.586 1285.67 159.08 1285.36 159.351 1284.89L165.766 1284.89C166.037 1285.36 166.536 1285.67 167.109 1285.67 167.967 1285.67 168.67 1284.97 168.67 1284.11 168.67 1283.26 167.967 1282.55 167.109 1282.55 166.531 1282.55 166.037 1282.87 165.766 1283.33L159.351 1283.33C159.215 1283.1 159.023 1282.91 158.789 1282.77L158.789 1278.39 160.61 1278.39C161.042 1278.39 161.39 1278.04 161.39 1277.61L161.39 1275.79 165.771 1275.79C166.042 1276.25 166.542 1276.57 167.114 1276.57 167.972 1276.57 168.675 1275.87 168.675 1275.01 168.675 1274.15 167.972 1273.45 167.114 1273.45 166.536 1273.45 166.042 1273.76 165.771 1274.23L161.39 1274.23 161.39 1262.78 165.771 1262.78C166.042 1263.24 166.542 1263.56 167.114 1263.56 167.686 1263.56 168.186 1263.24 168.456 1262.78L170.329 1262.78C170.683 1264.27 172.021 1265.38 173.618 1265.38 175.481 1265.38 177 1263.86 177 1262 177 1260.14 175.486 1258.62 173.618 1258.62ZM145 1235.2C143.996 1235.2 143.179 1234.39 143.179 1233.38 143.179 1232.38 143.996 1231.56 145 1231.56 146.004 1231.56 146.821 1232.38 146.821 1233.38 146.821 1234.39 146.004 1235.2 145 1235.2ZM114.561 1239.89C114.561 1238.88 115.378 1238.06 116.382 1238.06 117.386 1238.06 118.203 1238.88 118.203 1239.89 118.203 1240.89 117.386 1241.71 116.382 1241.71 115.378 1241.71 114.561 1240.89 114.561 1239.89ZM116.382 1276.83C115.378 1276.83 114.561 1276.01 114.561 1275.01 114.561 1274 115.378 1273.19 116.382 1273.19 117.36 1273.19 118.151 1273.96 118.193 1274.93 118.188 1274.96 118.183 1274.98 118.183 1275.01 118.183 1275.03 118.188 1275.06 118.193 1275.09 118.157 1276.05 117.36 1276.83 116.382 1276.83ZM146.821 1290.62C146.821 1291.62 146.004 1292.44 145 1292.44 143.996 1292.44 143.179 1291.62 143.179 1290.62 143.179 1289.61 143.996 1288.8 145 1288.8 146.004 1288.8 146.821 1289.61 146.821 1290.62ZM130.171 1276.83 130.171 1247.17 159.829 1247.17 159.829 1248.99C159.829 1248.99 159.829 1248.99 159.829 1248.99 159.829 1248.99 159.829 1248.99 159.829 1248.99L159.829 1261.99C159.829 1261.99 159.829 1261.99 159.829 1261.99 159.829 1261.99 159.829 1261.99 159.829 1261.99L159.829 1275C159.829 1275 159.829 1275 159.829 1275 159.829 1275 159.829 1275 159.829 1275L159.829 1276.82 130.171 1276.82ZM173.618 1263.82C172.614 1263.82 171.797 1263 171.797 1262 171.797 1261 172.614 1260.18 173.618 1260.18 174.622 1260.18 175.439 1261 175.439 1262 175.439 1263 174.622 1263.82 173.618 1263.82Z" fill="#C96984" fill-rule="evenodd"/></g></svg>